<?xml version="1.0" encoding="UTF-8" standalone="no"?>
<!DOCTYPE svg PUBLIC "-//W3C//DTD SVG 1.1//EN"
 "http://www.w3.org/Graphics/SVG/1.1/DTD/svg11.dtd">
<!-- Generated by graphviz version 2.49.3 (20211023.0002)
 -->
<!-- Title: ArchitectureDiagram Pages: 1 -->
<svg width="277pt" height="227pt"
 viewBox="0.00 0.00 276.50 227.00" xmlns="http://www.w3.org/2000/svg" xmlns:xlink="http://www.w3.org/1999/xlink">
<g id="graph0" class="graph" transform="scale(1 1) rotate(0) translate(4 223)">
<title>ArchitectureDiagram</title>
<polygon fill="white" stroke="transparent" points="-4,4 -4,-223 272.5,-223 272.5,4 -4,4"/>
<text text-anchor="middle" x="134.25" y="-7.8" font-family="Times,serif" font-size="14.00">ArchitectureDiagram</text>
<g id="clust1" class="cluster">
<title>clusterArchitecture</title>
<polygon fill="lightyellow" stroke="#eedd82" points="22,-87 22,-211 136,-211 136,-87 22,-87"/>
</g>
<!-- com.daisuzz.domain.bookmark -->
<g id="node1" class="node">
<title>com.daisuzz.domain.bookmark</title>
<polygon fill="#eedd82" stroke="black" points="128,-203 30,-203 30,-199 26,-199 26,-195 30,-195 30,-175 26,-175 26,-171 30,-171 30,-167 128,-167 128,-203"/>
<polyline fill="none" stroke="black" points="30,-199 34,-199 34,-195 30,-195 "/>
<polyline fill="none" stroke="black" points="30,-175 34,-175 34,-171 30,-171 "/>
<text text-anchor="middle" x="79" y="-180" font-family="Times,serif" font-size="20.00">bookmark</text>
</g>
<!-- com.daisuzz.domain.exception -->
<g id="node2" class="node">
<title>com.daisuzz.domain.exception</title>
<polygon fill="#eedd82" stroke="black" points="125,-131 31,-131 31,-127 27,-127 27,-123 31,-123 31,-103 27,-103 27,-99 31,-99 31,-95 125,-95 125,-131"/>
<polyline fill="none" stroke="black" points="31,-127 35,-127 35,-123 31,-123 "/>
<polyline fill="none" stroke="black" points="31,-103 35,-103 35,-99 31,-99 "/>
<text text-anchor="middle" x="78" y="-108" font-family="Times,serif" font-size="20.00">exception</text>
</g>
<!-- com.daisuzz.domain.bookmark&#45;&gt;com.daisuzz.domain.exception -->
<g id="edge3" class="edge">
<title>com.daisuzz.domain.bookmark&#45;&gt;com.daisuzz.domain.exception</title>
<path fill="none" stroke="black" d="M78,-166.83C78,-166.83 78,-141.41 78,-141.41"/>
<polygon fill="black" stroke="black" points="81.5,-141.41 78,-131.41 74.5,-141.41 81.5,-141.41"/>
</g>
<!-- kotlin.jvm -->
<g id="node3" class="node">
<title>kotlin.jvm</title>
<polygon fill="lightgrey" stroke="black" points="74,-59 0,-59 0,-55 -4,-55 -4,-51 0,-51 0,-31 -4,-31 -4,-27 0,-27 0,-23 74,-23 74,-59"/>
<polyline fill="none" stroke="black" points="0,-55 4,-55 4,-51 0,-51 "/>
<polyline fill="none" stroke="black" points="0,-31 4,-31 4,-27 0,-27 "/>
<text text-anchor="middle" x="37" y="-37.3" font-family="Times,serif" font-size="14.00">kotlin.jvm</text>
</g>
<!-- com.daisuzz.domain.bookmark&#45;&gt;kotlin.jvm -->
<g id="edge5" class="edge">
<title>com.daisuzz.domain.bookmark&#45;&gt;kotlin.jvm</title>
<path fill="none" stroke="black" d="M29.84,-185C21.25,-185 15,-185 15,-185 15,-185 15,-69.24 15,-69.24"/>
<polygon fill="black" stroke="black" points="18.5,-69.24 15,-59.24 11.5,-69.24 18.5,-69.24"/>
</g>
<!-- kotlin -->
<g id="node4" class="node">
<title>kotlin</title>
<polygon fill="lightgrey" stroke="black" points="163,-59 109,-59 109,-55 105,-55 105,-51 109,-51 109,-31 105,-31 105,-27 109,-27 109,-23 163,-23 163,-59"/>
<polyline fill="none" stroke="black" points="109,-55 113,-55 113,-51 109,-51 "/>
<polyline fill="none" stroke="black" points="109,-31 113,-31 113,-27 109,-27 "/>
<text text-anchor="middle" x="136" y="-37.3" font-family="Times,serif" font-size="14.00">kotlin</text>
</g>
<!-- com.daisuzz.domain.bookmark&#45;&gt;kotlin -->
<g id="edge2" class="edge">
<title>com.daisuzz.domain.bookmark&#45;&gt;kotlin</title>
<path fill="none" stroke="black" d="M128.03,-179C138,-179 145.5,-179 145.5,-179 145.5,-179 145.5,-69.04 145.5,-69.04"/>
<polygon fill="black" stroke="black" points="149,-69.04 145.5,-59.04 142,-69.04 149,-69.04"/>
</g>
<!-- org.jetbrains -->
<g id="node5" class="node">
<title>org.jetbrains</title>
<polygon fill="lightgrey" stroke="black" points="268.5,-131 181.5,-131 181.5,-127 177.5,-127 177.5,-123 181.5,-123 181.5,-103 177.5,-103 177.5,-99 181.5,-99 181.5,-95 268.5,-95 268.5,-131"/>
<polyline fill="none" stroke="black" points="181.5,-127 185.5,-127 185.5,-123 181.5,-123 "/>
<polyline fill="none" stroke="black" points="181.5,-103 185.5,-103 185.5,-99 181.5,-99 "/>
<text text-anchor="middle" x="225" y="-109.3" font-family="Times,serif" font-size="14.00">org.jetbrains</text>
</g>
<!-- com.daisuzz.domain.bookmark&#45;&gt;org.jetbrains -->
<g id="edge6" class="edge">
<title>com.daisuzz.domain.bookmark&#45;&gt;org.jetbrains</title>
<path fill="none" stroke="black" d="M128.02,-191C170.44,-191 225,-191 225,-191 225,-191 225,-141.09 225,-141.09"/>
<polygon fill="black" stroke="black" points="228.5,-141.09 225,-131.09 221.5,-141.09 228.5,-141.09"/>
</g>
<!-- com.daisuzz.domain.exception&#45;&gt;kotlin.jvm -->
<g id="edge1" class="edge">
<title>com.daisuzz.domain.exception&#45;&gt;kotlin.jvm</title>
<path fill="none" stroke="black" d="M52.5,-94.83C52.5,-94.83 52.5,-69.41 52.5,-69.41"/>
<polygon fill="black" stroke="black" points="56,-69.41 52.5,-59.41 49,-69.41 56,-69.41"/>
</g>
<!-- com.daisuzz.domain.exception&#45;&gt;kotlin -->
<g id="edge4" class="edge">
<title>com.daisuzz.domain.exception&#45;&gt;kotlin</title>
<path fill="none" stroke="black" d="M117,-94.83C117,-94.83 117,-69.41 117,-69.41"/>
<polygon fill="black" stroke="black" points="120.5,-69.41 117,-59.41 113.5,-69.41 120.5,-69.41"/>
</g>
</g>
</svg>
