<?xml version="1.0" encoding="UTF-8" standalone="no"?>
<!DOCTYPE svg PUBLIC "-//W3C//DTD SVG 1.1//EN"
 "http://www.w3.org/Graphics/SVG/1.1/DTD/svg11.dtd">
<!-- Generated by graphviz version 2.49.3 (20211023.0002)
 -->
<!-- Title: ArchitectureDiagram Pages: 1 -->
<svg width="654pt" height="227pt"
 viewBox="0.00 0.00 653.50 227.00" xmlns="http://www.w3.org/2000/svg" xmlns:xlink="http://www.w3.org/1999/xlink">
<g id="graph0" class="graph" transform="scale(1 1) rotate(0) translate(4 223)">
<title>ArchitectureDiagram</title>
<polygon fill="white" stroke="transparent" points="-4,4 -4,-223 649.5,-223 649.5,4 -4,4"/>
<text text-anchor="middle" x="322.75" y="-7.8" font-family="Times,serif" font-size="14.00">ArchitectureDiagram</text>
<g id="clust1" class="cluster">
<title>clusterArchitecture</title>
<polygon fill="lightyellow" stroke="#eedd82" points="219.5,-87 219.5,-211 637.5,-211 637.5,-87 219.5,-87"/>
</g>
<!-- com.daisuzz.domain.bookmark -->
<g id="node1" class="node">
<title>com.daisuzz.domain.bookmark</title>
<polygon fill="#eedd82" stroke="black" points="459.5,-203 361.5,-203 361.5,-199 357.5,-199 357.5,-195 361.5,-195 361.5,-175 357.5,-175 357.5,-171 361.5,-171 361.5,-167 459.5,-167 459.5,-203"/>
<polyline fill="none" stroke="black" points="361.5,-199 365.5,-199 365.5,-195 361.5,-195 "/>
<polyline fill="none" stroke="black" points="361.5,-175 365.5,-175 365.5,-171 361.5,-171 "/>
<text text-anchor="middle" x="410.5" y="-180" font-family="Times,serif" font-size="20.00">bookmark</text>
</g>
<!-- com.daisuzz.domain.exception -->
<g id="node2" class="node">
<title>com.daisuzz.domain.exception</title>
<polygon fill="#eedd82" stroke="black" points="427.5,-131 333.5,-131 333.5,-127 329.5,-127 329.5,-123 333.5,-123 333.5,-103 329.5,-103 329.5,-99 333.5,-99 333.5,-95 427.5,-95 427.5,-131"/>
<polyline fill="none" stroke="black" points="333.5,-127 337.5,-127 337.5,-123 333.5,-123 "/>
<polyline fill="none" stroke="black" points="333.5,-103 337.5,-103 337.5,-99 333.5,-99 "/>
<text text-anchor="middle" x="380.5" y="-108" font-family="Times,serif" font-size="20.00">exception</text>
</g>
<!-- com.daisuzz.domain.bookmark&#45;&gt;com.daisuzz.domain.exception -->
<g id="edge3" class="edge">
<title>com.daisuzz.domain.bookmark&#45;&gt;com.daisuzz.domain.exception</title>
<path fill="none" stroke="black" d="M405.5,-166.83C405.5,-166.83 405.5,-141.41 405.5,-141.41"/>
<polygon fill="black" stroke="black" points="409,-141.41 405.5,-131.41 402,-141.41 409,-141.41"/>
</g>
<!-- kotlin.jvm -->
<g id="node6" class="node">
<title>kotlin.jvm</title>
<polygon fill="lightgrey" stroke="black" points="226.5,-59 152.5,-59 152.5,-55 148.5,-55 148.5,-51 152.5,-51 152.5,-31 148.5,-31 148.5,-27 152.5,-27 152.5,-23 226.5,-23 226.5,-59"/>
<polyline fill="none" stroke="black" points="152.5,-55 156.5,-55 156.5,-51 152.5,-51 "/>
<polyline fill="none" stroke="black" points="152.5,-31 156.5,-31 156.5,-27 152.5,-27 "/>
<text text-anchor="middle" x="189.5" y="-37.3" font-family="Times,serif" font-size="14.00">kotlin.jvm</text>
</g>
<!-- com.daisuzz.domain.bookmark&#45;&gt;kotlin.jvm -->
<g id="edge5" class="edge">
<title>com.daisuzz.domain.bookmark&#45;&gt;kotlin.jvm</title>
<path fill="none" stroke="black" d="M437.5,-166.96C437.5,-129.55 437.5,-47 437.5,-47 437.5,-47 236.63,-47 236.63,-47"/>
<polygon fill="black" stroke="black" points="236.63,-43.5 226.63,-47 236.63,-50.5 236.63,-43.5"/>
</g>
<!-- kotlin -->
<g id="node7" class="node">
<title>kotlin</title>
<polygon fill="lightgrey" stroke="black" points="501.5,-59 447.5,-59 447.5,-55 443.5,-55 443.5,-51 447.5,-51 447.5,-31 443.5,-31 443.5,-27 447.5,-27 447.5,-23 501.5,-23 501.5,-59"/>
<polyline fill="none" stroke="black" points="447.5,-55 451.5,-55 451.5,-51 447.5,-51 "/>
<polyline fill="none" stroke="black" points="447.5,-31 451.5,-31 451.5,-27 447.5,-27 "/>
<text text-anchor="middle" x="474.5" y="-37.3" font-family="Times,serif" font-size="14.00">kotlin</text>
</g>
<!-- com.daisuzz.domain.bookmark&#45;&gt;kotlin -->
<g id="edge11" class="edge">
<title>com.daisuzz.domain.bookmark&#45;&gt;kotlin</title>
<path fill="none" stroke="black" d="M455.5,-166.76C455.5,-166.76 455.5,-69.09 455.5,-69.09"/>
<polygon fill="black" stroke="black" points="459,-69.09 455.5,-59.09 452,-69.09 459,-69.09"/>
</g>
<!-- org.jetbrains -->
<g id="node8" class="node">
<title>org.jetbrains</title>
<polygon fill="lightgrey" stroke="black" points="211,-131 124,-131 124,-127 120,-127 120,-123 124,-123 124,-103 120,-103 120,-99 124,-99 124,-95 211,-95 211,-131"/>
<polyline fill="none" stroke="black" points="124,-127 128,-127 128,-123 124,-123 "/>
<polyline fill="none" stroke="black" points="124,-103 128,-103 128,-99 124,-99 "/>
<text text-anchor="middle" x="167.5" y="-109.3" font-family="Times,serif" font-size="14.00">org.jetbrains</text>
</g>
<!-- com.daisuzz.domain.bookmark&#45;&gt;org.jetbrains -->
<g id="edge13" class="edge">
<title>com.daisuzz.domain.bookmark&#45;&gt;org.jetbrains</title>
<path fill="none" stroke="black" d="M383.5,-166.84C383.5,-161.96 383.5,-158 383.5,-158 383.5,-158 167.5,-158 167.5,-158 167.5,-158 167.5,-141.04 167.5,-141.04"/>
<polygon fill="black" stroke="black" points="171,-141.04 167.5,-131.04 164,-141.04 171,-141.04"/>
</g>
<!-- com.daisuzz.domain.exception&#45;&gt;kotlin.jvm -->
<g id="edge2" class="edge">
<title>com.daisuzz.domain.exception&#45;&gt;kotlin.jvm</title>
<path fill="none" stroke="black" d="M333.13,-113C286.63,-113 222.62,-113 222.62,-113 222.62,-113 222.62,-69.17 222.62,-69.17"/>
<polygon fill="black" stroke="black" points="226.13,-69.17 222.62,-59.17 219.13,-69.17 226.13,-69.17"/>
</g>
<!-- com.daisuzz.domain.exception&#45;&gt;kotlin -->
<g id="edge4" class="edge">
<title>com.daisuzz.domain.exception&#45;&gt;kotlin</title>
<path fill="none" stroke="black" d="M427.86,-107C440.88,-107 451.5,-107 451.5,-107 451.5,-107 451.5,-69.03 451.5,-69.03"/>
<polygon fill="black" stroke="black" points="455,-69.03 451.5,-59.03 448,-69.03 455,-69.03"/>
</g>
<!-- com.daisuzz.domain.trafficSignal -->
<g id="node3" class="node">
<title>com.daisuzz.domain.trafficSignal</title>
<polygon fill="#eedd82" stroke="black" points="343,-203 228,-203 228,-199 224,-199 224,-195 228,-195 228,-175 224,-175 224,-171 228,-171 228,-167 343,-167 343,-203"/>
<polyline fill="none" stroke="black" points="228,-199 232,-199 232,-195 228,-195 "/>
<polyline fill="none" stroke="black" points="228,-175 232,-175 232,-171 228,-171 "/>
<text text-anchor="middle" x="285.5" y="-180" font-family="Times,serif" font-size="20.00">trafficSignal</text>
</g>
<!-- java.lang -->
<g id="node5" class="node">
<title>java.lang</title>
<polygon fill="lightgrey" stroke="black" points="67,-131 0,-131 0,-127 -4,-127 -4,-123 0,-123 0,-103 -4,-103 -4,-99 0,-99 0,-95 67,-95 67,-131"/>
<polyline fill="none" stroke="black" points="0,-127 4,-127 4,-123 0,-123 "/>
<polyline fill="none" stroke="black" points="0,-103 4,-103 4,-99 0,-99 "/>
<text text-anchor="middle" x="33.5" y="-109.3" font-family="Times,serif" font-size="14.00">java.lang</text>
</g>
<!-- com.daisuzz.domain.trafficSignal&#45;&gt;java.lang -->
<g id="edge1" class="edge">
<title>com.daisuzz.domain.trafficSignal&#45;&gt;java.lang</title>
<path fill="none" stroke="black" d="M227.69,-194C153.29,-194 33.5,-194 33.5,-194 33.5,-194 33.5,-141.38 33.5,-141.38"/>
<polygon fill="black" stroke="black" points="37,-141.38 33.5,-131.38 30,-141.38 37,-141.38"/>
</g>
<!-- com.daisuzz.domain.trafficSignal&#45;&gt;kotlin.jvm -->
<g id="edge8" class="edge">
<title>com.daisuzz.domain.trafficSignal&#45;&gt;kotlin.jvm</title>
<path fill="none" stroke="black" d="M227.83,-176C220.16,-176 214.88,-176 214.88,-176 214.88,-176 214.88,-69.21 214.88,-69.21"/>
<polygon fill="black" stroke="black" points="218.38,-69.21 214.88,-59.21 211.38,-69.21 218.38,-69.21"/>
</g>
<!-- com.daisuzz.domain.trafficSignal&#45;&gt;kotlin -->
<g id="edge6" class="edge">
<title>com.daisuzz.domain.trafficSignal&#45;&gt;kotlin</title>
<path fill="none" stroke="black" d="M280.75,-166.91C280.75,-127.01 280.75,-35 280.75,-35 280.75,-35 437.15,-35 437.15,-35"/>
<polygon fill="black" stroke="black" points="437.15,-38.5 447.15,-35 437.15,-31.5 437.15,-38.5"/>
</g>
<!-- com.daisuzz.domain.trafficSignal&#45;&gt;org.jetbrains -->
<g id="edge14" class="edge">
<title>com.daisuzz.domain.trafficSignal&#45;&gt;org.jetbrains</title>
<path fill="none" stroke="black" d="M227.85,-185C189.36,-185 145.75,-185 145.75,-185 145.75,-185 145.75,-141.17 145.75,-141.17"/>
<polygon fill="black" stroke="black" points="149.25,-141.17 145.75,-131.17 142.25,-141.17 149.25,-141.17"/>
</g>
<!-- com.daisuzz.domain.vendingMachine -->
<g id="node4" class="node">
<title>com.daisuzz.domain.vendingMachine</title>
<polygon fill="#eedd82" stroke="black" points="629,-203 478,-203 478,-199 474,-199 474,-195 478,-195 478,-175 474,-175 474,-171 478,-171 478,-167 629,-167 629,-203"/>
<polyline fill="none" stroke="black" points="478,-199 482,-199 482,-195 478,-195 "/>
<polyline fill="none" stroke="black" points="478,-175 482,-175 482,-171 478,-171 "/>
<text text-anchor="middle" x="553.5" y="-180" font-family="Times,serif" font-size="20.00">vendingMachine</text>
</g>
<!-- com.daisuzz.domain.vendingMachine&#45;&gt;com.daisuzz.domain.exception -->
<g id="edge10" class="edge">
<title>com.daisuzz.domain.vendingMachine&#45;&gt;com.daisuzz.domain.exception</title>
<path fill="none" stroke="black" d="M492.1,-166.97C492.1,-147.42 492.1,-119 492.1,-119 492.1,-119 437.5,-119 437.5,-119"/>
<polygon fill="black" stroke="black" points="437.51,-115.5 427.5,-119 437.5,-122.5 437.51,-115.5"/>
</g>
<!-- com.daisuzz.domain.vendingMachine&#45;&gt;kotlin.jvm -->
<g id="edge7" class="edge">
<title>com.daisuzz.domain.vendingMachine&#45;&gt;kotlin.jvm</title>
<path fill="none" stroke="black" d="M487.4,-166.96C487.4,-154.44 487.4,-140 487.4,-140 487.4,-140 218.75,-140 218.75,-140 218.75,-140 218.75,-69.16 218.75,-69.16"/>
<polygon fill="black" stroke="black" points="222.25,-69.16 218.75,-59.16 215.25,-69.16 222.25,-69.16"/>
</g>
<!-- com.daisuzz.domain.vendingMachine&#45;&gt;kotlin -->
<g id="edge9" class="edge">
<title>com.daisuzz.domain.vendingMachine&#45;&gt;kotlin</title>
<path fill="none" stroke="black" d="M496.8,-166.76C496.8,-166.76 496.8,-69.09 496.8,-69.09"/>
<polygon fill="black" stroke="black" points="500.3,-69.09 496.8,-59.09 493.3,-69.09 500.3,-69.09"/>
</g>
<!-- com.daisuzz.domain.vendingMachine&#45;&gt;org.jetbrains -->
<g id="edge12" class="edge">
<title>com.daisuzz.domain.vendingMachine&#45;&gt;org.jetbrains</title>
<path fill="none" stroke="black" d="M482.7,-166.58C482.7,-157.72 482.7,-149 482.7,-149 482.7,-149 189.25,-149 189.25,-149 189.25,-149 189.25,-141.42 189.25,-141.42"/>
<polygon fill="black" stroke="black" points="192.75,-141.42 189.25,-131.42 185.75,-141.42 192.75,-141.42"/>
</g>
</g>
</svg>
