<?xml version="1.0" encoding="UTF-8" standalone="no"?>
<!DOCTYPE svg PUBLIC "-//W3C//DTD SVG 1.1//EN"
 "http://www.w3.org/Graphics/SVG/1.1/DTD/svg11.dtd">
<!-- Generated by graphviz version 2.49.3 (20211023.0002)
 -->
<!-- Title: BusinessRuleRelationDiagram Pages: 1 -->
<svg width="414pt" height="269pt"
 viewBox="0.00 0.00 414.00 269.00" xmlns="http://www.w3.org/2000/svg" xmlns:xlink="http://www.w3.org/1999/xlink">
<g id="graph0" class="graph" transform="scale(1 1) rotate(0) translate(4 265)">
<title>BusinessRuleRelationDiagram</title>
<polygon fill="white" stroke="transparent" points="-4,4 -4,-265 410,-265 410,4 -4,4"/>
<text text-anchor="middle" x="203" y="-7.8" font-family="Times,serif" font-size="14.00">BusinessRuleRelationDiagram</text>
<g id="clust1" class="cluster">
<title>cluster_com.daisuzz.domain.bookmark</title>
<polygon fill="lemonchiffon" stroke="#eedd82" stroke-width="2" points="8,-31 8,-253 200,-253 200,-31 8,-31"/>
<text text-anchor="middle" x="104" y="-237.8" font-family="Times,serif" font-size="14.00">com.daisuzz.domain.bookmark</text>
</g>
<g id="clust2" class="cluster">
<title>cluster_com.daisuzz.domain.exception</title>
<polygon fill="lemonchiffon" stroke="#eedd82" stroke-width="2" points="208,-103 208,-178 398,-178 398,-103 208,-103"/>
<text text-anchor="middle" x="303" y="-162.8" font-family="Times,serif" font-size="14.00">com.daisuzz.domain.exception</text>
</g>
<!-- com.daisuzz.domain.bookmark.Bookmark -->
<g id="node1" class="node">
<title>com.daisuzz.domain.bookmark.Bookmark</title>
<polygon fill="#eedd82" stroke="black" points="152,-147 76,-147 76,-111 152,-111 152,-147"/>
<text text-anchor="middle" x="114" y="-125.3" font-family="Times,serif" font-size="14.00">Bookmark</text>
</g>
<!-- com.daisuzz.domain.bookmark.Url -->
<g id="node3" class="node">
<title>com.daisuzz.domain.bookmark.Url</title>
<polygon fill="#eedd82" stroke="black" points="166,-75 112,-75 112,-39 166,-39 166,-75"/>
<text text-anchor="middle" x="139" y="-53.3" font-family="Times,serif" font-size="14.00">Url</text>
</g>
<!-- com.daisuzz.domain.bookmark.Bookmark&#45;&gt;com.daisuzz.domain.bookmark.Url -->
<g id="edge4" class="edge">
<title>com.daisuzz.domain.bookmark.Bookmark&#45;&gt;com.daisuzz.domain.bookmark.Url</title>
<path fill="none" stroke="black" d="M120.18,-110.7C123,-102.81 126.39,-93.3 129.52,-84.55"/>
<polygon fill="black" stroke="black" points="132.82,-85.7 132.89,-75.1 126.23,-83.34 132.82,-85.7"/>
</g>
<!-- com.daisuzz.domain.bookmark.Bookmarks -->
<g id="node2" class="node">
<title>com.daisuzz.domain.bookmark.Bookmarks</title>
<polygon fill="#eedd82" stroke="black" points="191.5,-222 110.5,-222 110.5,-186 191.5,-186 191.5,-222"/>
<text text-anchor="middle" x="151" y="-200.3" font-family="Times,serif" font-size="14.00">Bookmarks</text>
</g>
<!-- com.daisuzz.domain.bookmark.Bookmarks&#45;&gt;com.daisuzz.domain.bookmark.Bookmark -->
<g id="edge1" class="edge">
<title>com.daisuzz.domain.bookmark.Bookmarks&#45;&gt;com.daisuzz.domain.bookmark.Bookmark</title>
<path fill="none" stroke="black" d="M142.23,-185.7C137.76,-176.88 132.23,-165.97 127.26,-156.15"/>
<polygon fill="black" stroke="black" points="130.35,-154.51 122.71,-147.18 124.1,-157.68 130.35,-154.51"/>
</g>
<!-- com.daisuzz.domain.bookmark.Bookmarks&#45;&gt;com.daisuzz.domain.bookmark.Url -->
<g id="edge2" class="edge">
<title>com.daisuzz.domain.bookmark.Bookmarks&#45;&gt;com.daisuzz.domain.bookmark.Url</title>
<path fill="none" stroke="black" d="M158.87,-185.77C159.75,-183.21 160.5,-180.57 161,-178 167.3,-145.27 168.51,-135.48 161,-103 159.53,-96.66 157.05,-90.18 154.26,-84.19"/>
<polygon fill="black" stroke="black" points="157.38,-82.6 149.73,-75.26 151.13,-85.76 157.38,-82.6"/>
</g>
<!-- com.daisuzz.domain.exception.ApplicationException -->
<g id="node4" class="node">
<title>com.daisuzz.domain.exception.ApplicationException</title>
<polygon fill="#eedd82" stroke="black" points="355.5,-147 216.5,-147 216.5,-111 355.5,-111 355.5,-147"/>
<text text-anchor="middle" x="286" y="-125.3" font-family="Times,serif" font-size="14.00">ApplicationException</text>
</g>
<!-- com.daisuzz.domain.bookmark.Bookmarks&#45;&gt;com.daisuzz.domain.exception.ApplicationException -->
<g id="edge3" class="edge">
<title>com.daisuzz.domain.bookmark.Bookmarks&#45;&gt;com.daisuzz.domain.exception.ApplicationException</title>
<path fill="none" stroke="black" d="M188.27,-185.93C193.59,-183.35 198.96,-180.66 204,-178 219.08,-170.05 235.35,-160.69 249.39,-152.36"/>
<polygon fill="black" stroke="black" points="251.47,-155.2 258.26,-147.06 247.88,-149.19 251.47,-155.2"/>
</g>
</g>
</svg>
