<?xml version="1.0" encoding="UTF-8" standalone="no"?>
<!DOCTYPE svg PUBLIC "-//W3C//DTD SVG 1.1//EN"
 "http://www.w3.org/Graphics/SVG/1.1/DTD/svg11.dtd">
<!-- Generated by graphviz version 2.49.3 (20211023.0002)
 -->
<!-- Title: OverconcentrationBusinessRuleDiagram Pages: 1 -->
<svg width="1115pt" height="574pt"
 viewBox="0.00 0.00 1115.00 574.00" xmlns="http://www.w3.org/2000/svg" xmlns:xlink="http://www.w3.org/1999/xlink">
<g id="graph0" class="graph" transform="scale(1 1) rotate(0) translate(4 570)">
<title>OverconcentrationBusinessRuleDiagram</title>
<polygon fill="white" stroke="transparent" points="-4,4 -4,-570 1111,-570 1111,4 -4,4"/>
<text text-anchor="middle" x="553.5" y="-7.8" font-family="Times,serif" font-size="14.00">OverconcentrationBusinessRuleDiagram</text>
<!-- com.daisuzz.domain.bookmark.Bookmark -->
<g id="node1" class="node">
<title>com.daisuzz.domain.bookmark.Bookmark</title>
<polygon fill="lemonchiffon" stroke="black" points="126,-283 26,-283 26,-245 126,-245 126,-283"/>
<text text-anchor="middle" x="76" y="-267.8" font-family="Times,serif" font-size="14.00">ブックマーク</text>
<text text-anchor="middle" x="76" y="-252.8" font-family="Times,serif" font-size="14.00">Bookmark</text>
</g>
<!-- com.daisuzz.domain.bookmark.Url -->
<g id="node3" class="node">
<title>com.daisuzz.domain.bookmark.Url</title>
<polygon fill="#eedd82" stroke="black" points="309,-301 232,-301 232,-227 309,-227 309,-301"/>
<text text-anchor="middle" x="270.5" y="-273" font-family="Times,serif" font-size="30.00">URL</text>
<text text-anchor="middle" x="270.5" y="-240" font-family="Times,serif" font-size="30.00">Url</text>
</g>
<!-- com.daisuzz.domain.bookmark.Bookmark&#45;&gt;com.daisuzz.domain.bookmark.Url -->
<g id="edge5" class="edge">
<title>com.daisuzz.domain.bookmark.Bookmark&#45;&gt;com.daisuzz.domain.bookmark.Url</title>
<path fill="none" stroke="black" d="M126.07,-264C155.34,-264 192.34,-264 221.43,-264"/>
<polygon fill="black" stroke="black" points="221.76,-267.5 231.76,-264 221.76,-260.5 221.76,-267.5"/>
</g>
<!-- com.daisuzz.domain.bookmark.Bookmarks -->
<g id="node2" class="node">
<title>com.daisuzz.domain.bookmark.Bookmarks</title>
<polygon fill="lemonchiffon" stroke="black" points="146.5,-348 5.5,-348 5.5,-310 146.5,-310 146.5,-348"/>
<text text-anchor="middle" x="76" y="-332.8" font-family="Times,serif" font-size="14.00">ブックマークリスト</text>
<text text-anchor="middle" x="76" y="-317.8" font-family="Times,serif" font-size="14.00">Bookmarks</text>
</g>
<!-- com.daisuzz.domain.bookmark.Bookmarks&#45;&gt;com.daisuzz.domain.bookmark.Url -->
<g id="edge6" class="edge">
<title>com.daisuzz.domain.bookmark.Bookmarks&#45;&gt;com.daisuzz.domain.bookmark.Url</title>
<path fill="none" stroke="black" d="M133.46,-309.94C161.71,-300.4 195.53,-288.98 222.37,-279.91"/>
<polygon fill="black" stroke="black" points="223.57,-283.2 231.93,-276.69 221.33,-276.57 223.57,-283.2"/>
</g>
<!-- com.daisuzz.domain.bookmark.Url$Companion -->
<g id="node4" class="node">
<title>com.daisuzz.domain.bookmark.Url$Companion</title>
<polygon fill="#eedd82" stroke="black" points="600,-311.5 389,-311.5 389,-270.5 600,-270.5 600,-311.5"/>
<text text-anchor="middle" x="494.5" y="-283.5" font-family="Times,serif" font-size="30.00">Url$Companion</text>
</g>
<!-- com.daisuzz.domain.bookmark.Bookmarks&#45;&gt;com.daisuzz.domain.bookmark.Url$Companion -->
<g id="edge20" class="edge">
<title>com.daisuzz.domain.bookmark.Bookmarks&#45;&gt;com.daisuzz.domain.bookmark.Url$Companion</title>
<path fill="none" stroke="black" d="M146.58,-325.48C202.46,-322.34 282.88,-317.15 353,-310 361.36,-309.15 369.99,-308.19 378.67,-307.16"/>
<polygon fill="black" stroke="black" points="379.36,-310.6 388.86,-305.92 378.51,-303.65 379.36,-310.6"/>
</g>
<!-- com.daisuzz.domain.exception.ApplicationException -->
<g id="node5" class="node">
<title>com.daisuzz.domain.exception.ApplicationException</title>
<polygon fill="#eedd82" stroke="black" points="916,-311.5 636,-311.5 636,-270.5 916,-270.5 916,-311.5"/>
<text text-anchor="middle" x="776" y="-283.5" font-family="Times,serif" font-size="30.00">ApplicationException</text>
</g>
<!-- com.daisuzz.domain.bookmark.Bookmarks&#45;&gt;com.daisuzz.domain.exception.ApplicationException -->
<g id="edge17" class="edge">
<title>com.daisuzz.domain.bookmark.Bookmarks&#45;&gt;com.daisuzz.domain.exception.ApplicationException</title>
<path fill="none" stroke="black" d="M146.6,-331.64C247.05,-334.59 438.33,-336.93 600,-320 617.15,-318.2 635.18,-315.8 652.87,-313.15"/>
<polygon fill="black" stroke="black" points="653.89,-316.54 663.24,-311.57 652.83,-309.62 653.89,-316.54"/>
</g>
<!-- com.daisuzz.domain.bookmark.Url&#45;&gt;com.daisuzz.domain.bookmark.Url$Companion -->
<g id="edge21" class="edge">
<title>com.daisuzz.domain.bookmark.Url&#45;&gt;com.daisuzz.domain.bookmark.Url$Companion</title>
<path fill="none" stroke="black" d="M309.16,-263.36C328.6,-264.76 353.47,-267.27 378.61,-270.28"/>
<polygon fill="black" stroke="black" points="378.27,-273.76 388.62,-271.5 379.12,-266.82 378.27,-273.76"/>
</g>
<!-- com.daisuzz.domain.bookmark.Url$Companion&#45;&gt;com.daisuzz.domain.bookmark.Url -->
<g id="edge7" class="edge">
<title>com.daisuzz.domain.bookmark.Url$Companion&#45;&gt;com.daisuzz.domain.bookmark.Url</title>
<path fill="none" stroke="black" d="M388.62,-284.99C364.28,-282.1 339.55,-278.73 319.12,-275.45"/>
<polygon fill="black" stroke="black" points="319.6,-271.98 309.16,-273.8 318.45,-278.89 319.6,-271.98"/>
</g>
<!-- com.daisuzz.domain.bookmark.Url$Companion&#45;&gt;com.daisuzz.domain.exception.ApplicationException -->
<g id="edge18" class="edge">
<title>com.daisuzz.domain.bookmark.Url$Companion&#45;&gt;com.daisuzz.domain.exception.ApplicationException</title>
<path fill="none" stroke="black" d="M600.37,-291C608.72,-291 617.25,-291 625.82,-291"/>
<polygon fill="black" stroke="black" points="625.9,-294.5 635.9,-291 625.9,-287.5 625.9,-294.5"/>
</g>
<!-- com.daisuzz.domain.trafficSignal.TrafficColor -->
<g id="node6" class="node">
<title>com.daisuzz.domain.trafficSignal.TrafficColor</title>
<polygon fill="#eedd82" stroke="black" points="353,-504 188,-504 188,-430 353,-430 353,-504"/>
<text text-anchor="middle" x="270.5" y="-476" font-family="Times,serif" font-size="30.00">信号色</text>
<text text-anchor="middle" x="270.5" y="-443" font-family="Times,serif" font-size="30.00">TrafficColor</text>
</g>
<!-- com.daisuzz.domain.trafficSignal.TrafficColor$GREEN -->
<g id="node7" class="node">
<title>com.daisuzz.domain.trafficSignal.TrafficColor$GREEN</title>
<polygon fill="lemonchiffon" stroke="black" points="146,-566 6,-566 6,-530 146,-530 146,-566"/>
<text text-anchor="middle" x="76" y="-544.3" font-family="Times,serif" font-size="14.00">TrafficColor$GREEN</text>
</g>
<!-- com.daisuzz.domain.trafficSignal.TrafficColor$GREEN&#45;&gt;com.daisuzz.domain.trafficSignal.TrafficColor -->
<g id="edge1" class="edge">
<title>com.daisuzz.domain.trafficSignal.TrafficColor$GREEN&#45;&gt;com.daisuzz.domain.trafficSignal.TrafficColor</title>
<path fill="none" stroke="black" d="M128.86,-529.98C136.66,-527.09 144.57,-524.04 152,-521 161.78,-517 171.94,-512.64 182.01,-508.2"/>
<polygon fill="black" stroke="black" points="183.51,-511.36 191.22,-504.1 180.66,-504.97 183.51,-511.36"/>
</g>
<!-- com.daisuzz.domain.trafficSignal.TrafficColor$RED -->
<g id="node8" class="node">
<title>com.daisuzz.domain.trafficSignal.TrafficColor$RED</title>
<polygon fill="lemonchiffon" stroke="black" points="136.5,-512 15.5,-512 15.5,-476 136.5,-476 136.5,-512"/>
<text text-anchor="middle" x="76" y="-490.3" font-family="Times,serif" font-size="14.00">TrafficColor$RED</text>
</g>
<!-- com.daisuzz.domain.trafficSignal.TrafficColor$RED&#45;&gt;com.daisuzz.domain.trafficSignal.TrafficColor -->
<g id="edge2" class="edge">
<title>com.daisuzz.domain.trafficSignal.TrafficColor$RED&#45;&gt;com.daisuzz.domain.trafficSignal.TrafficColor</title>
<path fill="none" stroke="black" d="M136.59,-485.64C149.65,-483.81 163.77,-481.83 177.76,-479.87"/>
<polygon fill="black" stroke="black" points="178.5,-483.3 187.91,-478.44 177.53,-476.37 178.5,-483.3"/>
</g>
<!-- com.daisuzz.domain.trafficSignal.TrafficColor$YELLOW -->
<g id="node9" class="node">
<title>com.daisuzz.domain.trafficSignal.TrafficColor$YELLOW</title>
<polygon fill="lemonchiffon" stroke="black" points="152,-458 0,-458 0,-422 152,-422 152,-458"/>
<text text-anchor="middle" x="76" y="-436.3" font-family="Times,serif" font-size="14.00">TrafficColor$YELLOW</text>
</g>
<!-- com.daisuzz.domain.trafficSignal.TrafficColor$YELLOW&#45;&gt;com.daisuzz.domain.trafficSignal.TrafficColor -->
<g id="edge3" class="edge">
<title>com.daisuzz.domain.trafficSignal.TrafficColor$YELLOW&#45;&gt;com.daisuzz.domain.trafficSignal.TrafficColor</title>
<path fill="none" stroke="black" d="M152.25,-450.55C160.67,-451.73 169.3,-452.95 177.89,-454.15"/>
<polygon fill="black" stroke="black" points="177.55,-457.64 187.94,-455.56 178.52,-450.7 177.55,-457.64"/>
</g>
<!-- com.daisuzz.domain.trafficSignal.TrafficSignal -->
<g id="node10" class="node">
<title>com.daisuzz.domain.trafficSignal.TrafficSignal</title>
<polygon fill="lemonchiffon" stroke="black" points="121,-404 31,-404 31,-366 121,-366 121,-404"/>
<text text-anchor="middle" x="76" y="-388.8" font-family="Times,serif" font-size="14.00">信号機</text>
<text text-anchor="middle" x="76" y="-373.8" font-family="Times,serif" font-size="14.00">TrafficSignal</text>
</g>
<!-- com.daisuzz.domain.trafficSignal.TrafficSignal&#45;&gt;com.daisuzz.domain.trafficSignal.TrafficColor -->
<g id="edge4" class="edge">
<title>com.daisuzz.domain.trafficSignal.TrafficSignal&#45;&gt;com.daisuzz.domain.trafficSignal.TrafficColor</title>
<path fill="none" stroke="black" d="M121.23,-400.9C131.4,-404.72 142.12,-408.89 152,-413 161.58,-416.98 171.54,-421.29 181.41,-425.67"/>
<polygon fill="black" stroke="black" points="180.29,-429 190.85,-429.89 183.14,-422.61 180.29,-429"/>
</g>
<!-- com.daisuzz.domain.vendingMachine.VendingMachine -->
<g id="node11" class="node">
<title>com.daisuzz.domain.vendingMachine.VendingMachine</title>
<polygon fill="lemonchiffon" stroke="black" points="550.5,-252 438.5,-252 438.5,-214 550.5,-214 550.5,-252"/>
<text text-anchor="middle" x="494.5" y="-236.8" font-family="Times,serif" font-size="14.00">自動販売機</text>
<text text-anchor="middle" x="494.5" y="-221.8" font-family="Times,serif" font-size="14.00">VendingMachine</text>
</g>
<!-- com.daisuzz.domain.vendingMachine.VendingMachine&#45;&gt;com.daisuzz.domain.exception.ApplicationException -->
<g id="edge19" class="edge">
<title>com.daisuzz.domain.vendingMachine.VendingMachine&#45;&gt;com.daisuzz.domain.exception.ApplicationException</title>
<path fill="none" stroke="black" d="M550.72,-244.46C583.65,-251.29 626.6,-260.2 666.09,-268.4"/>
<polygon fill="black" stroke="black" points="665.55,-271.86 676.05,-270.47 666.97,-265.01 665.55,-271.86"/>
</g>
<!-- com.daisuzz.domain.vendingMachine.beverage.Beverage -->
<g id="node12" class="node">
<title>com.daisuzz.domain.vendingMachine.beverage.Beverage</title>
<polygon fill="#eedd82" stroke="black" points="841,-172 711,-172 711,-98 841,-98 841,-172"/>
<text text-anchor="middle" x="776" y="-144" font-family="Times,serif" font-size="30.00">飲み物</text>
<text text-anchor="middle" x="776" y="-111" font-family="Times,serif" font-size="30.00">Beverage</text>
</g>
<!-- com.daisuzz.domain.vendingMachine.VendingMachine&#45;&gt;com.daisuzz.domain.vendingMachine.beverage.Beverage -->
<g id="edge13" class="edge">
<title>com.daisuzz.domain.vendingMachine.VendingMachine&#45;&gt;com.daisuzz.domain.vendingMachine.beverage.Beverage</title>
<path fill="none" stroke="black" d="M550.76,-216.79C566.72,-211.92 584.11,-206.42 600,-201 633.56,-189.55 670.33,-175.85 701.47,-163.92"/>
<polygon fill="black" stroke="black" points="702.86,-167.13 710.94,-160.28 700.35,-160.6 702.86,-167.13"/>
</g>
<!-- com.daisuzz.domain.vendingMachine.beverage.BeverageId -->
<g id="node16" class="node">
<title>com.daisuzz.domain.vendingMachine.beverage.BeverageId</title>
<polygon fill="#eedd82" stroke="black" points="1107,-172 952,-172 952,-98 1107,-98 1107,-172"/>
<text text-anchor="middle" x="1029.5" y="-144" font-family="Times,serif" font-size="30.00">飲み物ID</text>
<text text-anchor="middle" x="1029.5" y="-111" font-family="Times,serif" font-size="30.00">BeverageId</text>
</g>
<!-- com.daisuzz.domain.vendingMachine.VendingMachine&#45;&gt;com.daisuzz.domain.vendingMachine.beverage.BeverageId -->
<g id="edge8" class="edge">
<title>com.daisuzz.domain.vendingMachine.VendingMachine&#45;&gt;com.daisuzz.domain.vendingMachine.beverage.BeverageId</title>
<path fill="none" stroke="black" d="M550.8,-237.14C632.69,-241.5 790.09,-242.98 916,-203 934.62,-197.09 953.36,-187.53 970.06,-177.42"/>
<polygon fill="black" stroke="black" points="971.96,-180.36 978.6,-172.11 968.26,-174.42 971.96,-180.36"/>
</g>
<!-- com.daisuzz.domain.vendingMachine.beverage.Beverage&#45;&gt;com.daisuzz.domain.vendingMachine.beverage.BeverageId -->
<g id="edge9" class="edge">
<title>com.daisuzz.domain.vendingMachine.beverage.Beverage&#45;&gt;com.daisuzz.domain.vendingMachine.beverage.BeverageId</title>
<path fill="none" stroke="black" d="M841.11,-135C871.71,-135 908.78,-135 941.84,-135"/>
<polygon fill="black" stroke="black" points="941.96,-138.5 951.96,-135 941.96,-131.5 941.96,-138.5"/>
</g>
<!-- com.daisuzz.domain.vendingMachine.beverage.Beverage$Coffee -->
<g id="node13" class="node">
<title>com.daisuzz.domain.vendingMachine.beverage.Beverage$Coffee</title>
<polygon fill="lemonchiffon" stroke="black" points="551.5,-192 437.5,-192 437.5,-156 551.5,-156 551.5,-192"/>
<text text-anchor="middle" x="494.5" y="-170.3" font-family="Times,serif" font-size="14.00">Beverage$Coffee</text>
</g>
<!-- com.daisuzz.domain.vendingMachine.beverage.Beverage$Coffee&#45;&gt;com.daisuzz.domain.vendingMachine.beverage.Beverage -->
<g id="edge14" class="edge">
<title>com.daisuzz.domain.vendingMachine.beverage.Beverage$Coffee&#45;&gt;com.daisuzz.domain.vendingMachine.beverage.Beverage</title>
<path fill="none" stroke="black" d="M551.72,-166.15C594.5,-160.19 653.76,-151.92 700.48,-145.4"/>
<polygon fill="black" stroke="black" points="701.13,-148.84 710.55,-143.99 700.16,-141.91 701.13,-148.84"/>
</g>
<!-- com.daisuzz.domain.vendingMachine.beverage.Beverage$Coffee&#45;&gt;com.daisuzz.domain.vendingMachine.beverage.BeverageId -->
<g id="edge10" class="edge">
<title>com.daisuzz.domain.vendingMachine.beverage.Beverage$Coffee&#45;&gt;com.daisuzz.domain.vendingMachine.beverage.BeverageId</title>
<path fill="none" stroke="black" d="M551.6,-182.32C632.84,-192.7 787.58,-206.24 916,-181 924.74,-179.28 933.66,-176.88 942.46,-174.06"/>
<polygon fill="black" stroke="black" points="943.6,-177.38 951.95,-170.86 941.36,-170.74 943.6,-177.38"/>
</g>
<!-- com.daisuzz.domain.vendingMachine.beverage.Beverage$Tea -->
<g id="node14" class="node">
<title>com.daisuzz.domain.vendingMachine.beverage.Beverage$Tea</title>
<polygon fill="lemonchiffon" stroke="black" points="542.5,-130 446.5,-130 446.5,-94 542.5,-94 542.5,-130"/>
<text text-anchor="middle" x="494.5" y="-108.3" font-family="Times,serif" font-size="14.00">Beverage$Tea</text>
</g>
<!-- com.daisuzz.domain.vendingMachine.beverage.Beverage$Tea&#45;&gt;com.daisuzz.domain.vendingMachine.beverage.Beverage -->
<g id="edge15" class="edge">
<title>com.daisuzz.domain.vendingMachine.beverage.Beverage$Tea&#45;&gt;com.daisuzz.domain.vendingMachine.beverage.Beverage</title>
<path fill="none" stroke="black" d="M542.6,-115.88C585.83,-119.43 650.58,-124.76 700.77,-128.89"/>
<polygon fill="black" stroke="black" points="700.67,-132.39 710.92,-129.73 701.24,-125.42 700.67,-132.39"/>
</g>
<!-- com.daisuzz.domain.vendingMachine.beverage.Beverage$Tea&#45;&gt;com.daisuzz.domain.vendingMachine.beverage.BeverageId -->
<g id="edge11" class="edge">
<title>com.daisuzz.domain.vendingMachine.beverage.Beverage$Tea&#45;&gt;com.daisuzz.domain.vendingMachine.beverage.BeverageId</title>
<path fill="none" stroke="black" d="M542.7,-101.9C621.05,-86.8 782.56,-62.77 916,-89 924.74,-90.72 933.66,-93.12 942.46,-95.94"/>
<polygon fill="black" stroke="black" points="941.36,-99.26 951.95,-99.14 943.6,-92.62 941.36,-99.26"/>
</g>
<!-- com.daisuzz.domain.vendingMachine.beverage.Beverage$Water -->
<g id="node15" class="node">
<title>com.daisuzz.domain.vendingMachine.beverage.Beverage$Water</title>
<polygon fill="lemonchiffon" stroke="black" points="549,-59 440,-59 440,-23 549,-23 549,-59"/>
<text text-anchor="middle" x="494.5" y="-37.3" font-family="Times,serif" font-size="14.00">Beverage$Water</text>
</g>
<!-- com.daisuzz.domain.vendingMachine.beverage.Beverage$Water&#45;&gt;com.daisuzz.domain.vendingMachine.beverage.Beverage -->
<g id="edge16" class="edge">
<title>com.daisuzz.domain.vendingMachine.beverage.Beverage$Water&#45;&gt;com.daisuzz.domain.vendingMachine.beverage.Beverage</title>
<path fill="none" stroke="black" d="M549.06,-59.01C592.21,-73.53 653.36,-94.09 701.16,-110.17"/>
<polygon fill="black" stroke="black" points="700.24,-113.55 710.84,-113.42 702.47,-106.92 700.24,-113.55"/>
</g>
<!-- com.daisuzz.domain.vendingMachine.beverage.Beverage$Water&#45;&gt;com.daisuzz.domain.vendingMachine.beverage.BeverageId -->
<g id="edge12" class="edge">
<title>com.daisuzz.domain.vendingMachine.beverage.Beverage$Water&#45;&gt;com.daisuzz.domain.vendingMachine.beverage.BeverageId</title>
<path fill="none" stroke="black" d="M549.23,-38.18C630.45,-35.47 788.55,-36.3 916,-74 931.61,-78.62 947.51,-85.59 962.24,-93.19"/>
<polygon fill="black" stroke="black" points="960.78,-96.38 971.25,-97.99 964.07,-90.2 960.78,-96.38"/>
</g>
</g>
</svg>
