<?xml version="1.0" encoding="UTF-8" standalone="no"?>
<!DOCTYPE svg PUBLIC "-//W3C//DTD SVG 1.1//EN"
 "http://www.w3.org/Graphics/SVG/1.1/DTD/svg11.dtd">
<!-- Generated by graphviz version 2.49.3 (20211023.0002)
 -->
<!-- Title: BusinessRuleRelationDiagram Pages: 1 -->
<svg width="848pt" height="514pt"
 viewBox="0.00 0.00 848.00 514.00" xmlns="http://www.w3.org/2000/svg" xmlns:xlink="http://www.w3.org/1999/xlink">
<g id="graph0" class="graph" transform="scale(1 1) rotate(0) translate(4 510)">
<title>BusinessRuleRelationDiagram</title>
<polygon fill="white" stroke="transparent" points="-4,4 -4,-510 844,-510 844,4 -4,4"/>
<text text-anchor="middle" x="420" y="-7.8" font-family="Times,serif" font-size="14.00">BusinessRuleRelationDiagram</text>
<g id="clust1" class="cluster">
<title>cluster_com.daisuzz.domain.bookmark</title>
<polygon fill="lemonchiffon" stroke="#eedd82" stroke-width="2" points="8,-190 8,-498 200,-498 200,-190 8,-190"/>
<text text-anchor="middle" x="104" y="-482.8" font-family="Times,serif" font-size="14.00">com.daisuzz.domain.bookmark</text>
</g>
<g id="clust2" class="cluster">
<title>cluster_com.daisuzz.domain.exception</title>
<polygon fill="lemonchiffon" stroke="#eedd82" stroke-width="2" points="110,-106 110,-181 300,-181 300,-106 110,-106"/>
<text text-anchor="middle" x="205" y="-165.8" font-family="Times,serif" font-size="14.00">com.daisuzz.domain.exception</text>
</g>
<g id="clust3" class="cluster">
<title>cluster_com.daisuzz.domain.trafficSignal</title>
<polygon fill="lemonchiffon" stroke="#eedd82" stroke-width="2" points="295,-274 295,-498 761,-498 761,-274 295,-274"/>
<text text-anchor="middle" x="528" y="-482.8" font-family="Times,serif" font-size="14.00">com.daisuzz.domain.trafficSignal</text>
</g>
<g id="clust4" class="cluster">
<title>cluster_com.daisuzz.domain.vendingMachine</title>
<polygon fill="lemonchiffon" stroke="#eedd82" stroke-width="2" points="223,-189 223,-266 452,-266 452,-189 223,-189"/>
<text text-anchor="middle" x="337.5" y="-250.8" font-family="Times,serif" font-size="14.00">com.daisuzz.domain.vendingMachine</text>
</g>
<g id="clust5" class="cluster">
<title>cluster_com.daisuzz.domain.vendingMachine.beverage</title>
<polygon fill="lemonchiffon" stroke="#eedd82" stroke-width="2" points="460,-31 460,-265 832,-265 832,-31 460,-31"/>
<text text-anchor="middle" x="646" y="-249.8" font-family="Times,serif" font-size="14.00">com.daisuzz.domain.vendingMachine.beverage</text>
</g>
<!-- com.daisuzz.domain.bookmark.Bookmark -->
<g id="node1" class="node">
<title>com.daisuzz.domain.bookmark.Bookmark</title>
<polygon fill="#eedd82" stroke="black" points="177,-393 77,-393 77,-355 177,-355 177,-393"/>
<text text-anchor="middle" x="127" y="-377.8" font-family="Times,serif" font-size="14.00">ブックマーク</text>
<text text-anchor="middle" x="127" y="-362.8" font-family="Times,serif" font-size="14.00">Bookmark</text>
</g>
<!-- com.daisuzz.domain.bookmark.Url -->
<g id="node3" class="node">
<title>com.daisuzz.domain.bookmark.Url</title>
<polygon fill="#eedd82" stroke="black" points="131,-319 77,-319 77,-281 131,-281 131,-319"/>
<text text-anchor="middle" x="104" y="-303.8" font-family="Times,serif" font-size="14.00">URL</text>
<text text-anchor="middle" x="104" y="-288.8" font-family="Times,serif" font-size="14.00">Url</text>
</g>
<!-- com.daisuzz.domain.bookmark.Bookmark&#45;&gt;com.daisuzz.domain.bookmark.Url -->
<g id="edge5" class="edge">
<title>com.daisuzz.domain.bookmark.Bookmark&#45;&gt;com.daisuzz.domain.bookmark.Url</title>
<path fill="none" stroke="black" d="M121.2,-354.83C118.71,-347.05 115.75,-337.77 112.99,-329.13"/>
<polygon fill="black" stroke="black" points="116.26,-327.87 109.88,-319.41 109.59,-330 116.26,-327.87"/>
</g>
<!-- com.daisuzz.domain.bookmark.Bookmarks -->
<g id="node2" class="node">
<title>com.daisuzz.domain.bookmark.Bookmarks</title>
<polygon fill="#eedd82" stroke="black" points="174.5,-467 33.5,-467 33.5,-429 174.5,-429 174.5,-467"/>
<text text-anchor="middle" x="104" y="-451.8" font-family="Times,serif" font-size="14.00">ブックマークリスト</text>
<text text-anchor="middle" x="104" y="-436.8" font-family="Times,serif" font-size="14.00">Bookmarks</text>
</g>
<!-- com.daisuzz.domain.bookmark.Bookmarks&#45;&gt;com.daisuzz.domain.bookmark.Bookmark -->
<g id="edge1" class="edge">
<title>com.daisuzz.domain.bookmark.Bookmarks&#45;&gt;com.daisuzz.domain.bookmark.Bookmark</title>
<path fill="none" stroke="black" d="M109.8,-428.83C112.29,-421.05 115.25,-411.77 118.01,-403.13"/>
<polygon fill="black" stroke="black" points="121.41,-404 121.12,-393.41 114.74,-401.87 121.41,-404"/>
</g>
<!-- com.daisuzz.domain.bookmark.Bookmarks&#45;&gt;com.daisuzz.domain.bookmark.Url -->
<g id="edge2" class="edge">
<title>com.daisuzz.domain.bookmark.Bookmarks&#45;&gt;com.daisuzz.domain.bookmark.Url</title>
<path fill="none" stroke="black" d="M88.01,-428.92C80.35,-419.04 71.98,-406.16 68,-393 63.11,-376.84 63.11,-371.16 68,-355 70.96,-345.24 76.33,-335.62 82.03,-327.28"/>
<polygon fill="black" stroke="black" points="84.94,-329.22 88.01,-319.08 79.29,-325.1 84.94,-329.22"/>
</g>
<!-- com.daisuzz.domain.bookmark.Url$Companion -->
<g id="node4" class="node">
<title>com.daisuzz.domain.bookmark.Url$Companion</title>
<polygon fill="#eedd82" stroke="black" points="157.5,-234 50.5,-234 50.5,-198 157.5,-198 157.5,-234"/>
<text text-anchor="middle" x="104" y="-212.3" font-family="Times,serif" font-size="14.00">Url$Companion</text>
</g>
<!-- com.daisuzz.domain.bookmark.Bookmarks&#45;&gt;com.daisuzz.domain.bookmark.Url$Companion -->
<g id="edge3" class="edge">
<title>com.daisuzz.domain.bookmark.Bookmarks&#45;&gt;com.daisuzz.domain.bookmark.Url$Companion</title>
<path fill="none" stroke="black" d="M84.5,-428.97C75.49,-419.29 65.74,-406.58 61,-393 53.55,-371.69 62.85,-289.29 68,-274 71.68,-263.07 77.86,-252.11 84.07,-242.77"/>
<polygon fill="black" stroke="black" points="87.09,-244.55 89.95,-234.35 81.35,-240.54 87.09,-244.55"/>
</g>
<!-- com.daisuzz.domain.exception.ApplicationException -->
<g id="node5" class="node">
<title>com.daisuzz.domain.exception.ApplicationException</title>
<polygon fill="#eedd82" stroke="black" points="274.5,-150 135.5,-150 135.5,-114 274.5,-114 274.5,-150"/>
<text text-anchor="middle" x="205" y="-128.3" font-family="Times,serif" font-size="14.00">ApplicationException</text>
</g>
<!-- com.daisuzz.domain.bookmark.Bookmarks&#45;&gt;com.daisuzz.domain.exception.ApplicationException -->
<g id="edge4" class="edge">
<title>com.daisuzz.domain.bookmark.Bookmarks&#45;&gt;com.daisuzz.domain.exception.ApplicationException</title>
<path fill="none" stroke="black" d="M146.48,-428.91C161.52,-420.29 176.94,-408.44 186,-393 229.75,-318.45 218.8,-210.42 210.41,-160.36"/>
<polygon fill="black" stroke="black" points="213.82,-159.55 208.63,-150.32 206.93,-160.78 213.82,-159.55"/>
</g>
<!-- com.daisuzz.domain.bookmark.Url&#45;&gt;com.daisuzz.domain.bookmark.Url$Companion -->
<g id="edge8" class="edge">
<title>com.daisuzz.domain.bookmark.Url&#45;&gt;com.daisuzz.domain.bookmark.Url$Companion</title>
<path fill="none" stroke="black" d="M98.28,-280.8C97.19,-270 96.96,-256.1 97.61,-244.04"/>
<polygon fill="black" stroke="black" points="101.1,-244.27 98.4,-234.03 94.12,-243.72 101.1,-244.27"/>
</g>
<!-- com.daisuzz.domain.bookmark.Url$Companion&#45;&gt;com.daisuzz.domain.bookmark.Url -->
<g id="edge6" class="edge">
<title>com.daisuzz.domain.bookmark.Url$Companion&#45;&gt;com.daisuzz.domain.bookmark.Url</title>
<path fill="none" stroke="black" d="M109.6,-234.03C110.75,-244.6 111.04,-258.44 110.46,-270.64"/>
<polygon fill="black" stroke="black" points="106.95,-270.57 109.72,-280.8 113.93,-271.08 106.95,-270.57"/>
</g>
<!-- com.daisuzz.domain.bookmark.Url$Companion&#45;&gt;com.daisuzz.domain.exception.ApplicationException -->
<g id="edge7" class="edge">
<title>com.daisuzz.domain.bookmark.Url$Companion&#45;&gt;com.daisuzz.domain.exception.ApplicationException</title>
<path fill="none" stroke="black" d="M125.42,-197.61C140.11,-185.68 159.79,-169.7 175.9,-156.62"/>
<polygon fill="black" stroke="black" points="178.4,-159.1 183.96,-150.08 173.99,-153.67 178.4,-159.1"/>
</g>
<!-- com.daisuzz.domain.trafficSignal.TrafficColor -->
<g id="node6" class="node">
<title>com.daisuzz.domain.trafficSignal.TrafficColor</title>
<polygon fill="#eedd82" stroke="black" points="565,-393 479,-393 479,-355 565,-355 565,-393"/>
<text text-anchor="middle" x="522" y="-377.8" font-family="Times,serif" font-size="14.00">信号色</text>
<text text-anchor="middle" x="522" y="-362.8" font-family="Times,serif" font-size="14.00">TrafficColor</text>
</g>
<!-- com.daisuzz.domain.trafficSignal.TrafficColor$GREEN -->
<g id="node7" class="node">
<title>com.daisuzz.domain.trafficSignal.TrafficColor$GREEN</title>
<polygon fill="#eedd82" stroke="black" points="443,-318 303,-318 303,-282 443,-282 443,-318"/>
<text text-anchor="middle" x="373" y="-296.3" font-family="Times,serif" font-size="14.00">TrafficColor$GREEN</text>
</g>
<!-- com.daisuzz.domain.trafficSignal.TrafficColor&#45;&gt;com.daisuzz.domain.trafficSignal.TrafficColor$GREEN -->
<g id="edge21" class="edge">
<title>com.daisuzz.domain.trafficSignal.TrafficColor&#45;&gt;com.daisuzz.domain.trafficSignal.TrafficColor$GREEN</title>
<path fill="none" stroke="black" d="M478.85,-355.02C457.55,-345.19 432.12,-332.96 411.48,-322.61"/>
<polygon fill="black" stroke="black" points="412.87,-319.4 402.37,-318.01 409.72,-325.64 412.87,-319.4"/>
</g>
<!-- com.daisuzz.domain.trafficSignal.TrafficColor$RED -->
<g id="node8" class="node">
<title>com.daisuzz.domain.trafficSignal.TrafficColor$RED</title>
<polygon fill="#eedd82" stroke="black" points="582.5,-318 461.5,-318 461.5,-282 582.5,-282 582.5,-318"/>
<text text-anchor="middle" x="522" y="-296.3" font-family="Times,serif" font-size="14.00">TrafficColor$RED</text>
</g>
<!-- com.daisuzz.domain.trafficSignal.TrafficColor&#45;&gt;com.daisuzz.domain.trafficSignal.TrafficColor$RED -->
<g id="edge22" class="edge">
<title>com.daisuzz.domain.trafficSignal.TrafficColor&#45;&gt;com.daisuzz.domain.trafficSignal.TrafficColor$RED</title>
<path fill="none" stroke="black" d="M516.05,-354.83C515.27,-346.89 515.06,-337.41 515.41,-328.63"/>
<polygon fill="black" stroke="black" points="518.92,-328.64 516.12,-318.42 511.94,-328.15 518.92,-328.64"/>
</g>
<!-- com.daisuzz.domain.trafficSignal.TrafficColor$YELLOW -->
<g id="node9" class="node">
<title>com.daisuzz.domain.trafficSignal.TrafficColor$YELLOW</title>
<polygon fill="#eedd82" stroke="black" points="753,-318 601,-318 601,-282 753,-282 753,-318"/>
<text text-anchor="middle" x="677" y="-296.3" font-family="Times,serif" font-size="14.00">TrafficColor$YELLOW</text>
</g>
<!-- com.daisuzz.domain.trafficSignal.TrafficColor&#45;&gt;com.daisuzz.domain.trafficSignal.TrafficColor$YELLOW -->
<g id="edge23" class="edge">
<title>com.daisuzz.domain.trafficSignal.TrafficColor&#45;&gt;com.daisuzz.domain.trafficSignal.TrafficColor$YELLOW</title>
<path fill="none" stroke="black" d="M555.16,-354.83C575.55,-344.91 602.03,-332.57 625.13,-322.21"/>
<polygon fill="black" stroke="black" points="626.75,-325.32 634.46,-318.05 623.9,-318.92 626.75,-325.32"/>
</g>
<!-- com.daisuzz.domain.trafficSignal.TrafficColor$GREEN&#45;&gt;com.daisuzz.domain.trafficSignal.TrafficColor -->
<g id="edge26" class="edge">
<title>com.daisuzz.domain.trafficSignal.TrafficColor$GREEN&#45;&gt;com.daisuzz.domain.trafficSignal.TrafficColor</title>
<path fill="none" stroke="black" d="M414.12,-318.05C435.11,-327.69 460.48,-339.88 481.39,-350.32"/>
<polygon fill="black" stroke="black" points="479.85,-353.46 490.35,-354.83 482.99,-347.21 479.85,-353.46"/>
</g>
<!-- com.daisuzz.domain.trafficSignal.TrafficColor$RED&#45;&gt;com.daisuzz.domain.trafficSignal.TrafficColor -->
<g id="edge24" class="edge">
<title>com.daisuzz.domain.trafficSignal.TrafficColor$RED&#45;&gt;com.daisuzz.domain.trafficSignal.TrafficColor</title>
<path fill="none" stroke="black" d="M527.88,-318.42C528.7,-326.34 528.94,-335.92 528.61,-344.82"/>
<polygon fill="black" stroke="black" points="525.11,-344.62 527.95,-354.83 532.1,-345.08 525.11,-344.62"/>
</g>
<!-- com.daisuzz.domain.trafficSignal.TrafficColor$YELLOW&#45;&gt;com.daisuzz.domain.trafficSignal.TrafficColor -->
<g id="edge25" class="edge">
<title>com.daisuzz.domain.trafficSignal.TrafficColor$YELLOW&#45;&gt;com.daisuzz.domain.trafficSignal.TrafficColor</title>
<path fill="none" stroke="black" d="M646.19,-318.02C625.74,-328.01 598.48,-340.74 574.67,-351.43"/>
<polygon fill="black" stroke="black" points="573.11,-348.3 565.4,-355.57 575.96,-354.69 573.11,-348.3"/>
</g>
<!-- com.daisuzz.domain.trafficSignal.TrafficSignal -->
<g id="node10" class="node">
<title>com.daisuzz.domain.trafficSignal.TrafficSignal</title>
<polygon fill="#eedd82" stroke="black" points="567,-467 477,-467 477,-429 567,-429 567,-467"/>
<text text-anchor="middle" x="522" y="-451.8" font-family="Times,serif" font-size="14.00">信号機</text>
<text text-anchor="middle" x="522" y="-436.8" font-family="Times,serif" font-size="14.00">TrafficSignal</text>
</g>
<!-- com.daisuzz.domain.trafficSignal.TrafficSignal&#45;&gt;com.daisuzz.domain.trafficSignal.TrafficColor -->
<g id="edge20" class="edge">
<title>com.daisuzz.domain.trafficSignal.TrafficSignal&#45;&gt;com.daisuzz.domain.trafficSignal.TrafficColor</title>
<path fill="none" stroke="black" d="M522,-428.83C522,-421.13 522,-411.97 522,-403.42"/>
<polygon fill="black" stroke="black" points="525.5,-403.41 522,-393.41 518.5,-403.41 525.5,-403.41"/>
</g>
<!-- com.daisuzz.domain.vendingMachine.VendingMachine -->
<g id="node11" class="node">
<title>com.daisuzz.domain.vendingMachine.VendingMachine</title>
<polygon fill="#eedd82" stroke="black" points="444,-235 332,-235 332,-197 444,-197 444,-235"/>
<text text-anchor="middle" x="388" y="-219.8" font-family="Times,serif" font-size="14.00">自動販売機</text>
<text text-anchor="middle" x="388" y="-204.8" font-family="Times,serif" font-size="14.00">VendingMachine</text>
</g>
<!-- com.daisuzz.domain.vendingMachine.VendingMachine&#45;&gt;com.daisuzz.domain.exception.ApplicationException -->
<g id="edge9" class="edge">
<title>com.daisuzz.domain.vendingMachine.VendingMachine&#45;&gt;com.daisuzz.domain.exception.ApplicationException</title>
<path fill="none" stroke="black" d="M347.39,-196.8C319.26,-184.2 281.73,-167.38 252.26,-154.18"/>
<polygon fill="black" stroke="black" points="253.56,-150.92 243,-150.03 250.7,-157.31 253.56,-150.92"/>
</g>
<!-- com.daisuzz.domain.vendingMachine.beverage.Beverage -->
<g id="node12" class="node">
<title>com.daisuzz.domain.vendingMachine.beverage.Beverage</title>
<polygon fill="#eedd82" stroke="black" points="629.5,-151 560.5,-151 560.5,-113 629.5,-113 629.5,-151"/>
<text text-anchor="middle" x="595" y="-135.8" font-family="Times,serif" font-size="14.00">飲み物</text>
<text text-anchor="middle" x="595" y="-120.8" font-family="Times,serif" font-size="14.00">Beverage</text>
</g>
<!-- com.daisuzz.domain.vendingMachine.VendingMachine&#45;&gt;com.daisuzz.domain.vendingMachine.beverage.Beverage -->
<g id="edge10" class="edge">
<title>com.daisuzz.domain.vendingMachine.VendingMachine&#45;&gt;com.daisuzz.domain.vendingMachine.beverage.Beverage</title>
<path fill="none" stroke="black" d="M430.27,-196.91C438.67,-193.86 447.52,-191.04 456,-189 488.6,-181.17 499.81,-193.27 531,-181 544.59,-175.65 557.82,-166.59 568.69,-157.78"/>
<polygon fill="black" stroke="black" points="571.14,-160.29 576.51,-151.15 566.62,-154.95 571.14,-160.29"/>
</g>
<!-- com.daisuzz.domain.vendingMachine.beverage.BeverageId -->
<g id="node16" class="node">
<title>com.daisuzz.domain.vendingMachine.beverage.BeverageId</title>
<polygon fill="#eedd82" stroke="black" points="635.5,-77 554.5,-77 554.5,-39 635.5,-39 635.5,-77"/>
<text text-anchor="middle" x="595" y="-61.8" font-family="Times,serif" font-size="14.00">飲み物ID</text>
<text text-anchor="middle" x="595" y="-46.8" font-family="Times,serif" font-size="14.00">BeverageId</text>
</g>
<!-- com.daisuzz.domain.vendingMachine.VendingMachine&#45;&gt;com.daisuzz.domain.vendingMachine.beverage.BeverageId -->
<g id="edge11" class="edge">
<title>com.daisuzz.domain.vendingMachine.VendingMachine&#45;&gt;com.daisuzz.domain.vendingMachine.beverage.BeverageId</title>
<path fill="none" stroke="black" d="M395.29,-196.89C405.86,-172.81 427.67,-130.47 459,-106 483.81,-86.62 517.15,-74.93 544.61,-68.06"/>
<polygon fill="black" stroke="black" points="545.51,-71.44 554.44,-65.74 543.9,-64.63 545.51,-71.44"/>
</g>
<!-- com.daisuzz.domain.vendingMachine.beverage.Stock -->
<g id="node17" class="node">
<title>com.daisuzz.domain.vendingMachine.beverage.Stock</title>
<polygon fill="#eedd82" stroke="black" points="522,-151 468,-151 468,-113 522,-113 522,-151"/>
<text text-anchor="middle" x="495" y="-135.8" font-family="Times,serif" font-size="14.00">在庫</text>
<text text-anchor="middle" x="495" y="-120.8" font-family="Times,serif" font-size="14.00">Stock</text>
</g>
<!-- com.daisuzz.domain.vendingMachine.VendingMachine&#45;&gt;com.daisuzz.domain.vendingMachine.beverage.Stock -->
<g id="edge12" class="edge">
<title>com.daisuzz.domain.vendingMachine.VendingMachine&#45;&gt;com.daisuzz.domain.vendingMachine.beverage.Stock</title>
<path fill="none" stroke="black" d="M411.75,-196.8C426.85,-185.23 446.58,-170.1 463.05,-157.49"/>
<polygon fill="black" stroke="black" points="465.51,-160.01 471.32,-151.15 461.25,-154.45 465.51,-160.01"/>
</g>
<!-- com.daisuzz.domain.vendingMachine.beverage.Beverage&#45;&gt;com.daisuzz.domain.vendingMachine.beverage.BeverageId -->
<g id="edge13" class="edge">
<title>com.daisuzz.domain.vendingMachine.beverage.Beverage&#45;&gt;com.daisuzz.domain.vendingMachine.beverage.BeverageId</title>
<path fill="none" stroke="black" d="M595,-112.83C595,-105.13 595,-95.97 595,-87.42"/>
<polygon fill="black" stroke="black" points="598.5,-87.41 595,-77.41 591.5,-87.41 598.5,-87.41"/>
</g>
<!-- com.daisuzz.domain.vendingMachine.beverage.Beverage$Coffee -->
<g id="node13" class="node">
<title>com.daisuzz.domain.vendingMachine.beverage.Beverage$Coffee</title>
<polygon fill="#eedd82" stroke="black" points="824,-234 710,-234 710,-198 824,-198 824,-234"/>
<text text-anchor="middle" x="767" y="-212.3" font-family="Times,serif" font-size="14.00">Beverage$Coffee</text>
</g>
<!-- com.daisuzz.domain.vendingMachine.beverage.Beverage$Coffee&#45;&gt;com.daisuzz.domain.vendingMachine.beverage.Beverage -->
<g id="edge16" class="edge">
<title>com.daisuzz.domain.vendingMachine.beverage.Beverage$Coffee&#45;&gt;com.daisuzz.domain.vendingMachine.beverage.Beverage</title>
<path fill="none" stroke="black" d="M730.94,-197.81C704.13,-185.03 667.4,-167.51 638.87,-153.92"/>
<polygon fill="black" stroke="black" points="640.08,-150.61 629.54,-149.47 637.06,-156.93 640.08,-150.61"/>
</g>
<!-- com.daisuzz.domain.vendingMachine.beverage.Beverage$Coffee&#45;&gt;com.daisuzz.domain.vendingMachine.beverage.BeverageId -->
<g id="edge17" class="edge">
<title>com.daisuzz.domain.vendingMachine.beverage.Beverage$Coffee&#45;&gt;com.daisuzz.domain.vendingMachine.beverage.BeverageId</title>
<path fill="none" stroke="black" d="M748.53,-197.92C725.21,-176.38 683.8,-138.26 648,-106 639.98,-98.78 631.24,-90.98 623.2,-83.86"/>
<polygon fill="black" stroke="black" points="625.26,-81.01 615.45,-77 620.62,-86.25 625.26,-81.01"/>
</g>
<!-- com.daisuzz.domain.vendingMachine.beverage.Beverage$Tea -->
<g id="node14" class="node">
<title>com.daisuzz.domain.vendingMachine.beverage.Beverage$Tea</title>
<polygon fill="#eedd82" stroke="black" points="692,-234 596,-234 596,-198 692,-198 692,-234"/>
<text text-anchor="middle" x="644" y="-212.3" font-family="Times,serif" font-size="14.00">Beverage$Tea</text>
</g>
<!-- com.daisuzz.domain.vendingMachine.beverage.Beverage$Tea&#45;&gt;com.daisuzz.domain.vendingMachine.beverage.Beverage -->
<g id="edge18" class="edge">
<title>com.daisuzz.domain.vendingMachine.beverage.Beverage$Tea&#45;&gt;com.daisuzz.domain.vendingMachine.beverage.Beverage</title>
<path fill="none" stroke="black" d="M633.61,-197.61C627.05,-186.64 618.45,-172.25 611.03,-159.83"/>
<polygon fill="black" stroke="black" points="614.02,-158.01 605.89,-151.22 608.01,-161.6 614.02,-158.01"/>
</g>
<!-- com.daisuzz.domain.vendingMachine.beverage.Beverage$Tea&#45;&gt;com.daisuzz.domain.vendingMachine.beverage.BeverageId -->
<g id="edge19" class="edge">
<title>com.daisuzz.domain.vendingMachine.beverage.Beverage$Tea&#45;&gt;com.daisuzz.domain.vendingMachine.beverage.BeverageId</title>
<path fill="none" stroke="black" d="M646.73,-197.96C649.52,-175.81 651.81,-136.37 639,-106 635.76,-98.32 630.68,-91.13 625.1,-84.8"/>
<polygon fill="black" stroke="black" points="627.32,-82.05 617.87,-77.26 622.27,-86.9 627.32,-82.05"/>
</g>
<!-- com.daisuzz.domain.vendingMachine.beverage.Beverage$Water -->
<g id="node15" class="node">
<title>com.daisuzz.domain.vendingMachine.beverage.Beverage$Water</title>
<polygon fill="#eedd82" stroke="black" points="577.5,-234 468.5,-234 468.5,-198 577.5,-198 577.5,-234"/>
<text text-anchor="middle" x="523" y="-212.3" font-family="Times,serif" font-size="14.00">Beverage$Water</text>
</g>
<!-- com.daisuzz.domain.vendingMachine.beverage.Beverage$Water&#45;&gt;com.daisuzz.domain.vendingMachine.beverage.Beverage -->
<g id="edge14" class="edge">
<title>com.daisuzz.domain.vendingMachine.beverage.Beverage$Water&#45;&gt;com.daisuzz.domain.vendingMachine.beverage.Beverage</title>
<path fill="none" stroke="black" d="M538.27,-197.61C548.18,-186.32 561.28,-171.41 572.39,-158.75"/>
<polygon fill="black" stroke="black" points="575.04,-161.04 579,-151.22 569.78,-156.42 575.04,-161.04"/>
</g>
<!-- com.daisuzz.domain.vendingMachine.beverage.Beverage$Water&#45;&gt;com.daisuzz.domain.vendingMachine.beverage.BeverageId -->
<g id="edge15" class="edge">
<title>com.daisuzz.domain.vendingMachine.beverage.Beverage$Water&#45;&gt;com.daisuzz.domain.vendingMachine.beverage.BeverageId</title>
<path fill="none" stroke="black" d="M527.12,-197.72C534.01,-169.07 547.58,-114.07 552,-106 556.2,-98.33 561.9,-90.91 567.78,-84.33"/>
<polygon fill="black" stroke="black" points="570.37,-86.68 574.69,-77.01 565.28,-81.88 570.37,-86.68"/>
</g>
</g>
</svg>
