<?xml version="1.0" encoding="UTF-8" standalone="no"?>
<!DOCTYPE svg PUBLIC "-//W3C//DTD SVG 1.1//EN"
 "http://www.w3.org/Graphics/SVG/1.1/DTD/svg11.dtd">
<!-- Generated by graphviz version 2.49.3 (20211023.0002)
 -->
<!-- Title: OverconcentrationBusinessRuleDiagram Pages: 1 -->
<svg width="497pt" height="170pt"
 viewBox="0.00 0.00 497.00 170.00" xmlns="http://www.w3.org/2000/svg" xmlns:xlink="http://www.w3.org/1999/xlink">
<g id="graph0" class="graph" transform="scale(1 1) rotate(0) translate(4 166)">
<title>OverconcentrationBusinessRuleDiagram</title>
<polygon fill="white" stroke="transparent" points="-4,4 -4,-166 493,-166 493,4 -4,4"/>
<text text-anchor="middle" x="244.5" y="-7.8" font-family="Times,serif" font-size="14.00">OverconcentrationBusinessRuleDiagram</text>
<!-- com.daisuzz.domain.bookmark.Bookmark -->
<g id="node1" class="node">
<title>com.daisuzz.domain.bookmark.Bookmark</title>
<polygon fill="#eedd82" stroke="black" points="328.5,-162 185.5,-162 185.5,-121 328.5,-121 328.5,-162"/>
<text text-anchor="middle" x="257" y="-134" font-family="Times,serif" font-size="30.00">Bookmark</text>
</g>
<!-- com.daisuzz.domain.bookmark.Url -->
<g id="node3" class="node">
<title>com.daisuzz.domain.bookmark.Url</title>
<polygon fill="#eedd82" stroke="black" points="489,-137 433,-137 433,-96 489,-96 489,-137"/>
<text text-anchor="middle" x="461" y="-109" font-family="Times,serif" font-size="30.00">Url</text>
</g>
<!-- com.daisuzz.domain.bookmark.Bookmark&#45;&gt;com.daisuzz.domain.bookmark.Url -->
<g id="edge3" class="edge">
<title>com.daisuzz.domain.bookmark.Bookmark&#45;&gt;com.daisuzz.domain.bookmark.Url</title>
<path fill="none" stroke="black" d="M328.65,-132.76C360.39,-128.83 396.54,-124.35 422.86,-121.1"/>
<polygon fill="black" stroke="black" points="423.3,-124.57 432.8,-119.87 422.44,-117.62 423.3,-124.57"/>
</g>
<!-- com.daisuzz.domain.bookmark.Bookmarks -->
<g id="node2" class="node">
<title>com.daisuzz.domain.bookmark.Bookmarks</title>
<polygon fill="lemonchiffon" stroke="black" points="81,-110.5 0,-110.5 0,-74.5 81,-74.5 81,-110.5"/>
<text text-anchor="middle" x="40.5" y="-88.8" font-family="Times,serif" font-size="14.00">Bookmarks</text>
</g>
<!-- com.daisuzz.domain.bookmark.Bookmarks&#45;&gt;com.daisuzz.domain.bookmark.Bookmark -->
<g id="edge1" class="edge">
<title>com.daisuzz.domain.bookmark.Bookmarks&#45;&gt;com.daisuzz.domain.bookmark.Bookmark</title>
<path fill="none" stroke="black" d="M81.09,-101.54C107.53,-107.58 143.24,-115.74 175.5,-123.11"/>
<polygon fill="black" stroke="black" points="174.86,-126.55 185.39,-125.37 176.42,-119.73 174.86,-126.55"/>
</g>
<!-- com.daisuzz.domain.bookmark.Bookmarks&#45;&gt;com.daisuzz.domain.bookmark.Url -->
<g id="edge4" class="edge">
<title>com.daisuzz.domain.bookmark.Bookmarks&#45;&gt;com.daisuzz.domain.bookmark.Url</title>
<path fill="none" stroke="black" d="M81.23,-94.64C146.93,-98.2 282.38,-105.64 397,-112.5 405.32,-113 414.26,-113.55 422.72,-114.09"/>
<polygon fill="black" stroke="black" points="422.51,-117.58 432.71,-114.72 422.96,-110.6 422.51,-117.58"/>
</g>
<!-- com.daisuzz.domain.exception.ApplicationException -->
<g id="node4" class="node">
<title>com.daisuzz.domain.exception.ApplicationException</title>
<polygon fill="#eedd82" stroke="black" points="397,-64 117,-64 117,-23 397,-23 397,-64"/>
<text text-anchor="middle" x="257" y="-36" font-family="Times,serif" font-size="30.00">ApplicationException</text>
</g>
<!-- com.daisuzz.domain.bookmark.Bookmarks&#45;&gt;com.daisuzz.domain.exception.ApplicationException -->
<g id="edge2" class="edge">
<title>com.daisuzz.domain.bookmark.Bookmarks&#45;&gt;com.daisuzz.domain.exception.ApplicationException</title>
<path fill="none" stroke="black" d="M81.09,-83.46C102.33,-78.6 129.55,-72.39 156.16,-66.31"/>
<polygon fill="black" stroke="black" points="156.96,-69.72 165.93,-64.08 155.4,-62.89 156.96,-69.72"/>
</g>
</g>
</svg>
