<?xml version="1.0" encoding="UTF-8" standalone="no"?>
<!DOCTYPE svg PUBLIC "-//W3C//DTD SVG 1.1//EN"
 "http://www.w3.org/Graphics/SVG/1.1/DTD/svg11.dtd">
<!-- Generated by graphviz version 2.49.3 (20211023.0002)
 -->
<!-- Title: CategoryDiagram Pages: 1 -->
<svg width="125pt" height="136pt"
 viewBox="0.00 0.00 125.00 136.00" xmlns="http://www.w3.org/2000/svg" xmlns:xlink="http://www.w3.org/1999/xlink">
<g id="graph0" class="graph" transform="scale(1 1) rotate(0) translate(12.5 109)">
<title>CategoryDiagram</title>
<polygon fill="white" stroke="transparent" points="-12.5,27 -12.5,-109 112.5,-109 112.5,27 -12.5,27"/>
<text text-anchor="middle" x="50" y="15.2" font-family="Times,serif" font-size="14.00">CategoryDiagram</text>
<!-- com.daisuzz.domain.trafficSignal.TrafficColor -->
<g id="node1" class="node">
<title>com.daisuzz.domain.trafficSignal.TrafficColor</title>
<polygon fill="#eedd82" stroke="black" points="95.24,-105.14 5.24,-105.14 5.24,-0.14 95.24,-0.14 95.24,-105.14"/>
<text text-anchor="start" x="28.74" y="-87.44" font-family="Times,serif" font-size="14.00">信号色</text>
<text text-anchor="start" x="15.24" y="-72.44" font-family="Times,serif" font-size="14.00">TrafficColor</text>
<polygon fill="none" stroke="black" points="13.24,-45.64 13.24,-66.64 87.24,-66.64 87.24,-45.64 13.24,-45.64"/>
<text text-anchor="start" x="35.74" y="-52.44" font-family="Times,serif" font-size="14.00">RED</text>
<polygon fill="none" stroke="black" points="13.24,-24.64 13.24,-45.64 87.24,-45.64 87.24,-24.64 13.24,-24.64"/>
<text text-anchor="start" x="20.24" y="-31.44" font-family="Times,serif" font-size="14.00">YELLOW</text>
<polygon fill="none" stroke="black" points="13.24,-3.64 13.24,-24.64 87.24,-24.64 87.24,-3.64 13.24,-3.64"/>
<text text-anchor="start" x="26.74" y="-10.44" font-family="Times,serif" font-size="14.00">GREEN</text>
</g>
</g>
</svg>
