<?xml version="1.0" encoding="UTF-8" standalone="no"?>
<!DOCTYPE svg PUBLIC "-//W3C//DTD SVG 1.1//EN"
 "http://www.w3.org/Graphics/SVG/1.1/DTD/svg11.dtd">
<!-- Generated by graphviz version 2.49.3 (20211023.0002)
 -->
<!-- Title: CategoryUsageDiagram Pages: 1 -->
<svg width="282pt" height="231pt"
 viewBox="0.00 0.00 282.00 231.00" xmlns="http://www.w3.org/2000/svg" xmlns:xlink="http://www.w3.org/1999/xlink">
<g id="graph0" class="graph" transform="scale(1 1) rotate(0) translate(4 227)">
<title>CategoryUsageDiagram</title>
<polygon fill="white" stroke="transparent" points="-4,4 -4,-227 278,-227 278,4 -4,4"/>
<text text-anchor="middle" x="137" y="-7.8" font-family="Times,serif" font-size="14.00">CategoryUsageDiagram</text>
<!-- com.daisuzz.domain.trafficSignal.TrafficColor -->
<g id="node1" class="node">
<title>com.daisuzz.domain.trafficSignal.TrafficColor</title>
<polygon fill="lemonchiffon" stroke="black" points="274,-170 192,-170 188,-166 188,-132 270,-132 274,-136 274,-170"/>
<polyline fill="none" stroke="black" points="270,-166 188,-166 "/>
<polyline fill="none" stroke="black" points="270,-166 270,-132 "/>
<polyline fill="none" stroke="black" points="270,-166 274,-170 "/>
<text text-anchor="middle" x="231" y="-154.8" font-family="Times,serif" font-size="14.00">信号色</text>
<text text-anchor="middle" x="231" y="-139.8" font-family="Times,serif" font-size="14.00">TrafficColor</text>
</g>
<!-- com.daisuzz.domain.trafficSignal.TrafficColor$GREEN -->
<g id="node2" class="node">
<title>com.daisuzz.domain.trafficSignal.TrafficColor$GREEN</title>
<polygon fill="white" stroke="black" points="146,-223 6,-223 6,-187 146,-187 146,-223"/>
<text text-anchor="middle" x="76" y="-201.3" font-family="Times,serif" font-size="14.00">TrafficColor$GREEN</text>
</g>
<!-- com.daisuzz.domain.trafficSignal.TrafficColor&#45;&gt;com.daisuzz.domain.trafficSignal.TrafficColor$GREEN -->
<g id="edge7" class="edge">
<title>com.daisuzz.domain.trafficSignal.TrafficColor&#45;&gt;com.daisuzz.domain.trafficSignal.TrafficColor$GREEN</title>
<path fill="none" stroke="black" d="M192.69,-170.06C181.54,-174.53 168.87,-179.29 156.1,-183.83"/>
<polygon fill="black" stroke="black" points="154.62,-180.64 146.34,-187.25 156.93,-187.25 154.62,-180.64"/>
</g>
<!-- com.daisuzz.domain.trafficSignal.TrafficColor$RED -->
<g id="node3" class="node">
<title>com.daisuzz.domain.trafficSignal.TrafficColor$RED</title>
<polygon fill="white" stroke="black" points="136.5,-169 15.5,-169 15.5,-133 136.5,-133 136.5,-169"/>
<text text-anchor="middle" x="76" y="-147.3" font-family="Times,serif" font-size="14.00">TrafficColor$RED</text>
</g>
<!-- com.daisuzz.domain.trafficSignal.TrafficColor&#45;&gt;com.daisuzz.domain.trafficSignal.TrafficColor$RED -->
<g id="edge4" class="edge">
<title>com.daisuzz.domain.trafficSignal.TrafficColor&#45;&gt;com.daisuzz.domain.trafficSignal.TrafficColor$RED</title>
<path fill="none" stroke="black" d="M187.84,-157.1C175.11,-157.62 160.76,-157.82 146.73,-157.73"/>
<polygon fill="black" stroke="black" points="146.63,-154.23 136.59,-157.6 146.55,-161.22 146.63,-154.23"/>
</g>
<!-- com.daisuzz.domain.trafficSignal.TrafficColor$YELLOW -->
<g id="node4" class="node">
<title>com.daisuzz.domain.trafficSignal.TrafficColor$YELLOW</title>
<polygon fill="white" stroke="black" points="152,-115 0,-115 0,-79 152,-79 152,-115"/>
<text text-anchor="middle" x="76" y="-93.3" font-family="Times,serif" font-size="14.00">TrafficColor$YELLOW</text>
</g>
<!-- com.daisuzz.domain.trafficSignal.TrafficColor&#45;&gt;com.daisuzz.domain.trafficSignal.TrafficColor$YELLOW -->
<g id="edge3" class="edge">
<title>com.daisuzz.domain.trafficSignal.TrafficColor&#45;&gt;com.daisuzz.domain.trafficSignal.TrafficColor$YELLOW</title>
<path fill="none" stroke="black" d="M187.79,-142.21C167.04,-135.72 142.04,-126.92 121.05,-118.73"/>
<polygon fill="black" stroke="black" points="122.3,-115.46 111.72,-115.01 119.72,-121.96 122.3,-115.46"/>
</g>
<!-- com.daisuzz.domain.trafficSignal.TrafficColor$GREEN&#45;&gt;com.daisuzz.domain.trafficSignal.TrafficColor -->
<g id="edge5" class="edge">
<title>com.daisuzz.domain.trafficSignal.TrafficColor$GREEN&#45;&gt;com.daisuzz.domain.trafficSignal.TrafficColor</title>
<path fill="none" stroke="black" d="M111.72,-186.99C131.29,-179.04 156.13,-170.05 177.98,-162.93"/>
<polygon fill="black" stroke="black" points="179.33,-166.17 187.79,-159.79 177.2,-159.5 179.33,-166.17"/>
</g>
<!-- com.daisuzz.domain.trafficSignal.TrafficColor$RED&#45;&gt;com.daisuzz.domain.trafficSignal.TrafficColor -->
<g id="edge2" class="edge">
<title>com.daisuzz.domain.trafficSignal.TrafficColor$RED&#45;&gt;com.daisuzz.domain.trafficSignal.TrafficColor</title>
<path fill="none" stroke="black" d="M136.59,-144.4C150.1,-144.16 164.34,-144.21 177.53,-144.56"/>
<polygon fill="black" stroke="black" points="177.73,-148.06 187.84,-144.9 177.96,-141.07 177.73,-148.06"/>
</g>
<!-- com.daisuzz.domain.trafficSignal.TrafficColor$YELLOW&#45;&gt;com.daisuzz.domain.trafficSignal.TrafficColor -->
<g id="edge6" class="edge">
<title>com.daisuzz.domain.trafficSignal.TrafficColor$YELLOW&#45;&gt;com.daisuzz.domain.trafficSignal.TrafficColor</title>
<path fill="none" stroke="black" d="M147.23,-115.06C159.51,-119.31 172,-123.87 183.43,-128.3"/>
<polygon fill="black" stroke="black" points="182.17,-131.56 192.76,-131.97 184.73,-125.05 182.17,-131.56"/>
</g>
<!-- com.daisuzz.domain.trafficSignal.TrafficSignal -->
<g id="node5" class="node">
<title>com.daisuzz.domain.trafficSignal.TrafficSignal</title>
<polygon fill="white" stroke="black" points="121,-61 31,-61 31,-23 121,-23 121,-61"/>
<text text-anchor="middle" x="76" y="-45.8" font-family="Times,serif" font-size="14.00">信号機</text>
<text text-anchor="middle" x="76" y="-30.8" font-family="Times,serif" font-size="14.00">TrafficSignal</text>
</g>
<!-- com.daisuzz.domain.trafficSignal.TrafficSignal&#45;&gt;com.daisuzz.domain.trafficSignal.TrafficColor -->
<g id="edge1" class="edge">
<title>com.daisuzz.domain.trafficSignal.TrafficSignal&#45;&gt;com.daisuzz.domain.trafficSignal.TrafficColor</title>
<path fill="none" stroke="black" d="M121.03,-54.7C131.62,-58.75 142.59,-63.82 152,-70 174.16,-84.54 194.76,-106.45 209.21,-123.81"/>
<polygon fill="black" stroke="black" points="206.78,-126.36 215.8,-131.92 212.21,-121.95 206.78,-126.36"/>
</g>
</g>
</svg>
