<?xml version="1.0" encoding="UTF-8" standalone="no"?>
<!DOCTYPE svg PUBLIC "-//W3C//DTD SVG 1.1//EN"
 "http://www.w3.org/Graphics/SVG/1.1/DTD/svg11.dtd">
<!-- Generated by graphviz version 2.49.3 (20211023.0002)
 -->
<!-- Title: PackageRelationDiagram Pages: 1 -->
<svg width="772pt" height="141pt"
 viewBox="0.00 0.00 772.00 141.00" xmlns="http://www.w3.org/2000/svg" xmlns:xlink="http://www.w3.org/1999/xlink">
<g id="graph0" class="graph" transform="scale(1 1) rotate(0) translate(4 137)">
<title>PackageRelationDiagram</title>
<polygon fill="white" stroke="transparent" points="-4,4 -4,-137 768,-137 768,4 -4,4"/>
<text text-anchor="middle" x="382" y="-7.8" font-family="Times,serif" font-size="14.00">PackageRelationDiagram</text>
<!-- summary -->
<g id="node1" class="node">
<title>summary</title>
<polygon fill="none" stroke="black" points="78,-133 0,-133 0,-95 84,-95 84,-127 78,-133"/>
<polyline fill="none" stroke="black" points="78,-133 78,-127 "/>
<polyline fill="none" stroke="black" points="84,-127 78,-127 "/>
<text text-anchor="start" x="8" y="-117.8" font-family="Times,serif" font-size="14.00">Packages: 4</text>
<text text-anchor="start" x="8" y="-102.8" font-family="Times,serif" font-size="14.00">Relations: 2</text>
</g>
<!-- com.daisuzz.domain.vendingMachine -->
<g id="node2" class="node">
<title>com.daisuzz.domain.vendingMachine</title>
<polygon fill="#eedd82" stroke="black" points="331.5,-132 102.5,-132 102.5,-96 331.5,-96 331.5,-132"/>
<text text-anchor="middle" x="217" y="-110.3" font-family="Times,serif" font-size="14.00">com.daisuzz.domain.vendingMachine</text>
</g>
<!-- com.daisuzz.domain.exception -->
<g id="node3" class="node">
<title>com.daisuzz.domain.exception</title>
<polygon fill="#eedd82" stroke="black" points="426,-59 236,-59 236,-23 426,-23 426,-59"/>
<text text-anchor="middle" x="331" y="-37.3" font-family="Times,serif" font-size="14.00">com.daisuzz.domain.exception</text>
</g>
<!-- com.daisuzz.domain.vendingMachine&#45;&gt;com.daisuzz.domain.exception -->
<g id="edge1" class="edge">
<title>com.daisuzz.domain.vendingMachine&#45;&gt;com.daisuzz.domain.exception</title>
<path fill="none" stroke="black" d="M244.31,-95.99C259.42,-86.58 278.41,-74.76 294.75,-64.57"/>
<polygon fill="black" stroke="black" points="296.88,-67.37 303.52,-59.11 293.18,-61.43 296.88,-67.37"/>
</g>
<!-- com.daisuzz.domain.bookmark -->
<g id="node4" class="node">
<title>com.daisuzz.domain.bookmark</title>
<polygon fill="#eedd82" stroke="black" points="542,-132 350,-132 350,-96 542,-96 542,-132"/>
<text text-anchor="middle" x="446" y="-110.3" font-family="Times,serif" font-size="14.00">com.daisuzz.domain.bookmark</text>
</g>
<!-- com.daisuzz.domain.bookmark&#45;&gt;com.daisuzz.domain.exception -->
<g id="edge2" class="edge">
<title>com.daisuzz.domain.bookmark&#45;&gt;com.daisuzz.domain.exception</title>
<path fill="none" stroke="black" d="M418.45,-95.99C403.2,-86.58 384.05,-74.76 367.56,-64.57"/>
<polygon fill="black" stroke="black" points="369.07,-61.39 358.72,-59.11 365.39,-67.35 369.07,-61.39"/>
</g>
<!-- com.daisuzz.domain.trafficSignal -->
<g id="node5" class="node">
<title>com.daisuzz.domain.trafficSignal</title>
<polygon fill="#eedd82" stroke="black" points="764,-132 560,-132 560,-96 764,-96 764,-132"/>
<text text-anchor="middle" x="662" y="-110.3" font-family="Times,serif" font-size="14.00">com.daisuzz.domain.trafficSignal</text>
</g>
</g>
</svg>
