<?xml version="1.0" encoding="UTF-8" standalone="no"?>
<!DOCTYPE svg PUBLIC "-//W3C//DTD SVG 1.1//EN"
 "http://www.w3.org/Graphics/SVG/1.1/DTD/svg11.dtd">
<!-- Generated by graphviz version 2.49.3 (20211023.0002)
 -->
<!-- Title: PackageRelationDiagram Pages: 1 -->
<svg width="772pt" height="160pt"
 viewBox="0.00 0.00 772.00 160.00" xmlns="http://www.w3.org/2000/svg" xmlns:xlink="http://www.w3.org/1999/xlink">
<g id="graph0" class="graph" transform="scale(1 1) rotate(0) translate(4 156)">
<title>PackageRelationDiagram</title>
<polygon fill="white" stroke="transparent" points="-4,4 -4,-156 768,-156 768,4 -4,4"/>
<text text-anchor="middle" x="382" y="-7.8" font-family="Times,serif" font-size="14.00">PackageRelationDiagram</text>
<g id="clust1" class="cluster">
<title>cluster_com.daisuzz.domain.vendingMachine</title>
<polygon fill="lemonchiffon" stroke="#eedd82" stroke-width="2" points="343,-31 343,-106 572,-106 572,-31 343,-31"/>
<text text-anchor="middle" x="457.5" y="-90.8" font-family="Times,serif" font-size="14.00">com.daisuzz.domain.vendingMachine</text>
</g>
<!-- summary -->
<g id="node1" class="node">
<title>summary</title>
<polygon fill="none" stroke="black" points="78,-152 0,-152 0,-114 84,-114 84,-146 78,-152"/>
<polyline fill="none" stroke="black" points="78,-152 78,-146 "/>
<polyline fill="none" stroke="black" points="84,-146 78,-146 "/>
<text text-anchor="start" x="8" y="-136.8" font-family="Times,serif" font-size="14.00">Packages: 5</text>
<text text-anchor="start" x="8" y="-121.8" font-family="Times,serif" font-size="14.00">Relations: 3</text>
</g>
<!-- com.daisuzz.domain.vendingMachine -->
<g id="node2" class="node">
<title>com.daisuzz.domain.vendingMachine</title>
<polygon fill="#eedd82" stroke="black" points="541.5,-151 312.5,-151 312.5,-115 541.5,-115 541.5,-151"/>
<text text-anchor="middle" x="427" y="-129.3" font-family="Times,serif" font-size="14.00">com.daisuzz.domain.vendingMachine</text>
</g>
<!-- com.daisuzz.domain.exception -->
<g id="node3" class="node">
<title>com.daisuzz.domain.exception</title>
<polygon fill="#eedd82" stroke="black" points="334,-75 144,-75 144,-39 334,-39 334,-75"/>
<text text-anchor="middle" x="239" y="-53.3" font-family="Times,serif" font-size="14.00">com.daisuzz.domain.exception</text>
</g>
<!-- com.daisuzz.domain.vendingMachine&#45;&gt;com.daisuzz.domain.exception -->
<g id="edge1" class="edge">
<title>com.daisuzz.domain.vendingMachine&#45;&gt;com.daisuzz.domain.exception</title>
<path fill="none" stroke="black" d="M364.56,-114.91C355.9,-112.14 347.18,-109.15 339,-106 319.26,-98.4 298.04,-88.49 280.26,-79.64"/>
<polygon fill="black" stroke="black" points="281.8,-76.5 271.3,-75.13 278.66,-82.75 281.8,-76.5"/>
</g>
<!-- com.daisuzz.domain.vendingMachine.beverage -->
<g id="node4" class="node">
<title>com.daisuzz.domain.vendingMachine.beverage</title>
<polygon fill="#eedd82" stroke="black" points="460.5,-75 393.5,-75 393.5,-39 460.5,-39 460.5,-75"/>
<text text-anchor="middle" x="427" y="-53.3" font-family="Times,serif" font-size="14.00">beverage</text>
</g>
<!-- com.daisuzz.domain.vendingMachine&#45;&gt;com.daisuzz.domain.vendingMachine.beverage -->
<g id="edge2" class="edge">
<title>com.daisuzz.domain.vendingMachine&#45;&gt;com.daisuzz.domain.vendingMachine.beverage</title>
<path fill="none" stroke="black" d="M427,-114.84C427,-106.06 427,-95.16 427,-85.27"/>
<polygon fill="black" stroke="black" points="430.5,-85.07 427,-75.07 423.5,-85.07 430.5,-85.07"/>
</g>
<!-- com.daisuzz.domain.bookmark -->
<g id="node5" class="node">
<title>com.daisuzz.domain.bookmark</title>
<polygon fill="#eedd82" stroke="black" points="294,-151 102,-151 102,-115 294,-115 294,-151"/>
<text text-anchor="middle" x="198" y="-129.3" font-family="Times,serif" font-size="14.00">com.daisuzz.domain.bookmark</text>
</g>
<!-- com.daisuzz.domain.bookmark&#45;&gt;com.daisuzz.domain.exception -->
<g id="edge3" class="edge">
<title>com.daisuzz.domain.bookmark&#45;&gt;com.daisuzz.domain.exception</title>
<path fill="none" stroke="black" d="M207.51,-114.84C212.58,-105.68 218.93,-94.23 224.59,-84.01"/>
<polygon fill="black" stroke="black" points="227.76,-85.51 229.54,-75.07 221.63,-82.12 227.76,-85.51"/>
</g>
<!-- com.daisuzz.domain.trafficSignal -->
<g id="node6" class="node">
<title>com.daisuzz.domain.trafficSignal</title>
<polygon fill="#eedd82" stroke="black" points="764,-151 560,-151 560,-115 764,-115 764,-151"/>
<text text-anchor="middle" x="662" y="-129.3" font-family="Times,serif" font-size="14.00">com.daisuzz.domain.trafficSignal</text>
</g>
</g>
</svg>
