<?xml version="1.0" encoding="UTF-8" standalone="no"?>
<!DOCTYPE svg PUBLIC "-//W3C//DTD SVG 1.1//EN"
 "http://www.w3.org/Graphics/SVG/1.1/DTD/svg11.dtd">
<!-- Generated by graphviz version 2.49.3 (20211023.0002)
 -->
<!-- Title: PackageRelationDiagram Pages: 1 -->
<svg width="302pt" height="141pt"
 viewBox="0.00 0.00 302.00 141.00" xmlns="http://www.w3.org/2000/svg" xmlns:xlink="http://www.w3.org/1999/xlink">
<g id="graph0" class="graph" transform="scale(1 1) rotate(0) translate(4 137)">
<title>PackageRelationDiagram</title>
<polygon fill="white" stroke="transparent" points="-4,4 -4,-137 298,-137 298,4 -4,4"/>
<text text-anchor="middle" x="147" y="-7.8" font-family="Times,serif" font-size="14.00">PackageRelationDiagram</text>
<!-- summary -->
<g id="node1" class="node">
<title>summary</title>
<polygon fill="none" stroke="black" points="78,-133 0,-133 0,-95 84,-95 84,-127 78,-133"/>
<polyline fill="none" stroke="black" points="78,-133 78,-127 "/>
<polyline fill="none" stroke="black" points="84,-127 78,-127 "/>
<text text-anchor="start" x="8" y="-117.8" font-family="Times,serif" font-size="14.00">Packages: 2</text>
<text text-anchor="start" x="8" y="-102.8" font-family="Times,serif" font-size="14.00">Relations: 1</text>
</g>
<!-- com.daisuzz.domain.bookmark -->
<g id="node2" class="node">
<title>com.daisuzz.domain.bookmark</title>
<polygon fill="#eedd82" stroke="black" points="294,-132 102,-132 102,-96 294,-96 294,-132"/>
<text text-anchor="middle" x="198" y="-110.3" font-family="Times,serif" font-size="14.00">com.daisuzz.domain.bookmark</text>
</g>
<!-- com.daisuzz.domain.exception -->
<g id="node3" class="node">
<title>com.daisuzz.domain.exception</title>
<polygon fill="#eedd82" stroke="black" points="293,-59 103,-59 103,-23 293,-23 293,-59"/>
<text text-anchor="middle" x="198" y="-37.3" font-family="Times,serif" font-size="14.00">com.daisuzz.domain.exception</text>
</g>
<!-- com.daisuzz.domain.bookmark&#45;&gt;com.daisuzz.domain.exception -->
<g id="edge1" class="edge">
<title>com.daisuzz.domain.bookmark&#45;&gt;com.daisuzz.domain.exception</title>
<path fill="none" stroke="black" d="M198,-95.81C198,-87.79 198,-78.05 198,-69.07"/>
<polygon fill="black" stroke="black" points="201.5,-69.03 198,-59.03 194.5,-69.03 201.5,-69.03"/>
</g>
</g>
</svg>
